<svg id="Layer_1" data-name="Layer 1" xmlns="http://www.w3.org/2000/svg" xmlns:xlink="http://www.w3.org/1999/xlink" viewBox="0 0 334.81 269.62">
  <defs>
    <clipPath id="clip-path">
      <rect x="-275.77" y="-144.77" width="860" height="614" style="fill: none"/>
    </clipPath>
  </defs>
  <title>birra korca logo2</title>
  <g style="clip-path: url(#clip-path)">
    <path d="M22.14,144.9a3.53,3.53,0,0,0-1.62,3V148h0A3.53,3.53,0,0,1,17,144.51v-.1a3.54,3.54,0,0,1,3.53-3.52h1.61Zm-.16-39-6.7.27V102.6l6.68-.26Zm.22,52.57H22a10.52,10.52,0,0,1-8.88-4.91A10.43,10.43,0,0,0,18.47,155h3.72Zm30.4,42.85,3.54,7.87-40,0V205.8l36.51,0Zm-5-41.77a9.14,9.14,0,0,0-1.66-.82l0,39.16-3.54,0,0-42.63A11.27,11.27,0,0,1,47.61,159.57Zm234.3,61.5q4.62-3.25,9-6.91c2.79-2.19,4-.55,2.45,1.63-45.82,55.47-125.63,63.31-183.72,20.8a140,140,0,0,1-16.66-14.34,138.28,138.28,0,0,0,13.12,10.89C161,273.31,235.23,268.52,281.91,221.07ZM97.38,97.41l3.54,0v7.95c-5.32-.43-9.75,3.92-14.18,11.31a100.46,100.46,0,0,1-8,12,84.93,84.93,0,0,1-26,21.93,40,40,0,0,0-4.22-3.09A84.78,84.78,0,0,0,75.2,125.28a100.58,100.58,0,0,0,8-12c4.43-7.39,8.86-11.74,14.18-11.31Zm-30.7,8.12c-.33-.06-.68-.11-1.06-.15v-2.2A3.2,3.2,0,0,1,66.68,105.53ZM51.82,97.71h3.54v8.07H45.13l.35,31.7c-1.56.92-2.79,1.33-3.48,1.12l-.41-36.26H51.82Z" style="fill: #cb9833;fill-rule: evenodd"/>
    <path d="M117.45,138.72h1.6a9.11,9.11,0,0,1,4.38,1.12,9.15,9.15,0,0,0-7.92-4.57h-1.59a9.16,9.16,0,0,0-9.15,9.11v45.21a9.12,9.12,0,0,0,4.77,8,9,9,0,0,1-1.23-4.54v-45.2a9.16,9.16,0,0,1,9.14-9.11M100,200.62a23.4,23.4,0,0,0,18.17,8.59c31,0,37.06-55.91,15.17-73.48,17.55,20.45,10.48,70-18.71,70A22.83,22.83,0,0,1,100,200.62Z" style="fill: #cb9833;fill-rule: evenodd"/>
    <path d="M172.72,141.28h-.25V173.7a10.9,10.9,0,0,1-3.29.5h-.24V137.84h.24a11.21,11.21,0,0,1,9.51,5.12,11,11,0,0,0-6-1.68m2.65,60.17,3.5.09.08,7.77H148.36l0-3.45h27Zm5.85-5.54a21.27,21.27,0,0,0-8.93-3.47l-.11,5.57-3.61-.1.18-8.92C174.22,189.91,178.41,192.18,181.22,195.91Zm26.83,5.54a14.63,14.63,0,0,0,3.52.09l0,7.61-23.06,0a28.36,28.36,0,0,0-.72-3.45l20.24,0ZM192.85,186a16.65,16.65,0,0,0,2.28-1.21,29.88,29.88,0,0,0,4.58,11.39Q195.27,193.26,192.85,186Zm-.52-47.69c.69.57,1.34,1.17,2,1.79,14,13.73,9.81,35.69-8,43.44-4.46,1.05-9.48.52-14.81-.74C197.48,180.82,206.79,154.74,192.33,138.31Z" style="fill: #cb9833;fill-rule: evenodd"/>
    <path d="M250.43,149.54a29.34,29.34,0,0,1,.47,4.14l8.24-1.87L254.57,129l-2.84.06,3.88,19.27Zm-19.26,47.54a9,9,0,0,1-1.19-4.45V148.06a9,9,0,0,1,9-9h1.58a8.76,8.76,0,0,1,4.14,1,8.58,8.58,0,0,0-7.68-4.41h-1.57a9,9,0,0,0-9,9v44.57A9,9,0,0,0,231.17,197.08Zm5,31.7a12,12,0,0,1-2.88,6c11.49-3,16.42-11.22,10.93-21.12l-3.09-4.09a22.71,22.71,0,0,0,7.42-1.73,20,20,0,0,0,6-5.58v-4.43H257a31.14,31.14,0,0,0,1.63-5.05l-3.6-3.19q-2.49,10.22-10,14.8a22.71,22.71,0,0,1-7.42,1.73l3.09,4.09C245,218,242.91,224.8,236.21,228.78Zm-6.38-10.67-.34.33c.53.35,1,.69,1.49,1A12.85,12.85,0,0,0,229.83,218.11Zm-8.1-17a24,24,0,0,0,10.73,7.39l2.35-2.35A22.39,22.39,0,0,1,221.73,201.11Z" style="fill: #cb9833;fill-rule: evenodd"/>
    <path d="M279.7,173.52l3.71-13.23,3.4-12.09-2.26-8-4.68,16.68-4.67,16.68Zm-1.53,27.72h3.56l0,8-23.59,0v-3.44l20.05,0ZM296,184.62,277,185l-3.09,12.83h-4.36l3.91-16.28,21.53-.39Zm28.26,16.83h3.54v7.77l-31.87.05v-3.45l28.34,0Zm-16.05-67.31h3.54v8.13h-5.94L320,198h-2.66l-15-59.17h5.94Z" style="fill: #cb9833;fill-rule: evenodd"/>
    <path d="M321.61,138v-1.52H323c.12.06.26.06.39.13a.66.66,0,0,1,.38.57.77.77,0,0,1-.33.7,2.85,2.85,0,0,1-.82.12Zm1.78.88c.18-.06.44-.06.62-.12a1.15,1.15,0,0,0,.45-.32.69.69,0,0,0,.31-.44,1.29,1.29,0,0,0,.12-.69,1.48,1.48,0,0,0-.55-1.33,3.05,3.05,0,0,0-1.72-.44h-2.2v5.87h1.19V139h.7l1.39,2.46H325Z" style="fill: #cb9833"/>
    <path d="M318.39,138.54a4.11,4.11,0,1,1,4.11,4.1,4.1,4.1,0,0,1-4.11-4.1m-.94,0a5.06,5.06,0,1,0,5.05-5A5.06,5.06,0,0,0,317.45,138.54Z" style="fill: #cb9833"/>
    <path d="M249,92.71,249.7,91h6.39a10.57,10.57,0,0,1,1.73.11,3.43,3.43,0,0,1,1.17.47,3.92,3.92,0,0,1,1,.91,2.62,2.62,0,0,1,.51.92,4.23,4.23,0,0,1,.11.58,2.82,2.82,0,0,1,0,.4,2.34,2.34,0,0,1-.92,2.14,6.44,6.44,0,0,1-1.37.74,9,9,0,0,1-1.28.25l-.08,0,.1.1.84,0,.43.07a4.18,4.18,0,0,1,2.37,1.15,3,3,0,0,1,.84,2.14,6.47,6.47,0,0,1-.28,1.58,3.23,3.23,0,0,1-1.66,1.86,7.68,7.68,0,0,1-3.85.81H249l.66-1.65h.12c.53-.07.84-.46.92-1.14s.12-2.79.12-6.34a7.58,7.58,0,0,0-.3-2.64,1.21,1.21,0,0,0-.86-.76,3,3,0,0,0-.66-.06M254,96.56c0,.21.09.32.22.32l.39,0,1.11-.12h.06l.47-.18a2.19,2.19,0,0,0,1.24-2.08,2.06,2.06,0,0,0-.41-1.34,1.63,1.63,0,0,0-1.13-.61l-.31,0-.25,0a1.15,1.15,0,0,0-1.17.79,10.8,10.8,0,0,0-.28,3.09Zm.08,2.33L254,99v4a4,4,0,0,0,2,.52,2.1,2.1,0,0,0,1.49-.53,1.88,1.88,0,0,0,.56-1.46,3.84,3.84,0,0,0-.23-1.21,1.66,1.66,0,0,0-1-1,6.61,6.61,0,0,0-2.41-.31Z" style="fill: #cb9833"/>
    <path d="M265.52,92.7l.69-1.7h11.23v3.29l-2.16.54v-.34a1.72,1.72,0,0,0-.48-1.13,2.08,2.08,0,0,0-1.22-.46,6,6,0,0,0-2.65.33c-.3.22-.45.92-.45,2.12v.37l0,1.22c0,.21.06.31.18.31h1.14c.82,0,1.29-.33,1.41-1V96.1l1.79-.38,0,4.51-2,.6,0-.16v-.38a1.21,1.21,0,0,0-1.37-1.17h-1c-.14,0-.21.09-.21.26v3.4c0,.29.09.49.29.57a3.42,3.42,0,0,0,1.27.14h1.19a2.34,2.34,0,0,0,1.55-.42,2.14,2.14,0,0,0,.61-1.37v-.3l2.26-.61v4.52H265.52l.65-1.66h.2a.84.84,0,0,0,.74-.64,11.3,11.3,0,0,0,.16-2.48V94.34a1.8,1.8,0,0,0-.29-1.19,1.86,1.86,0,0,0-1.11-.45Z" style="fill: #cb9833"/>
    <path d="M281.74,92.7l.67-1.7h11.24v3.29l-2.16.54v-.34a1.72,1.72,0,0,0-.48-1.13,2.08,2.08,0,0,0-1.22-.46,6,6,0,0,0-2.65.33c-.3.22-.45.92-.45,2.12v.37l0,1.22c0,.21.06.31.18.31H288c.82,0,1.29-.33,1.41-1V96.1l1.79-.38,0,4.51-1.95.6,0-.16v-.38a1.23,1.23,0,0,0-1.38-1.17h-1c-.14,0-.21.09-.21.26v3.4c0,.29.09.49.29.57a3.45,3.45,0,0,0,1.27.14h1.18a2.33,2.33,0,0,0,1.56-.42,2.14,2.14,0,0,0,.61-1.37v-.3l2.26-.61v4.52H281.74l.64-1.66h.2a.83.83,0,0,0,.74-.64,11.3,11.3,0,0,0,.16-2.48V94.34a1.87,1.87,0,0,0-.28-1.19,1.92,1.92,0,0,0-1.11-.45Z" style="fill: #cb9833"/>
    <path d="M298,105.31l.68-1.7h.16c.59-.09.9-.65.94-1.69s.07-2.91.07-5.63a8.72,8.72,0,0,0-.26-2.79c-.17-.35-.61-.59-1.31-.72l-.28,0,.68-1.68c.86,0,1.85,0,3-.06L303.9,91l1.3-.1a7.28,7.28,0,0,1,2,.24,3.3,3.3,0,0,1,1.44.89,2.78,2.78,0,0,1,.77,1.28,5.11,5.11,0,0,1,.16,1.08,2.62,2.62,0,0,1-1.13,2.55,9.27,9.27,0,0,1-1.51.68l-.65.14-.41.07-.06,0,.08.12.55.14a1.6,1.6,0,0,1,.66.34,7.93,7.93,0,0,1,.8,1l.23.34,1.8,2.74.36.52.06.08a1.21,1.21,0,0,0,.47.43,4.36,4.36,0,0,0,.44.2,1.25,1.25,0,0,0,.36,0l-.56,1.59H308l-3.18-5.08-.4-.63-.23-.28a1.51,1.51,0,0,0-1.13-.47h-.2v1.23a7.13,7.13,0,0,0,.33,2.79,1.93,1.93,0,0,0,1.54.74H305l-.65,1.7Zm4.91-8.53h.23a10.77,10.77,0,0,0,1.39-.06,2.54,2.54,0,0,0,.83-.3,1.66,1.66,0,0,0,.69-.72,2.37,2.37,0,0,0,.24-1.09,1.85,1.85,0,0,0-.4-1.26,1.48,1.48,0,0,0-.81-.54,4.91,4.91,0,0,0-.61-.07,5.36,5.36,0,0,0-.63.07,1,1,0,0,0-.67.51,3.41,3.41,0,0,0-.26,1.63Z" style="fill: #cb9833"/>
    <path d="M20.39,145.27l0-7.14H18.74a3.54,3.54,0,0,0-3.53,3.52v.1a3.53,3.53,0,0,0,3.53,3.52ZM10,91.51H50.05v8.07H39.82l.41,36.26c3.13,1,17.32-10.72,22.82-26.12,1.57-4.42,4.31-9.81-2.74-10.55L60.26,91l35.35.21v7.94c-5.32-.43-9.75,3.92-14.18,11.32a100.46,100.46,0,0,1-8,12A84.78,84.78,0,0,1,46.77,144.8,47.94,47.94,0,0,1,59.44,157C117.3,254,224.35,259.45,285.56,208c2.79-2.2,4-.56,2.46,1.63-45.83,55.47-125.64,63.3-183.73,20.79a142.12,142.12,0,0,1-32.91-33.92c-3.46-5-6.74-10.1-10.12-15.42L46.77,158.25q-2.57-4.38-6.13-5.7l0,42.62,10.21,0V203l-40,0v-7.91l9.81,0-.18-42.86H16.7A10.5,10.5,0,0,1,6.22,141.84v-.28A10.49,10.49,0,0,1,16.7,131.12h3.63l-.14-31.54L10,100Z" style="fill-rule: evenodd"/>
    <path d="M112.15,132.51h1.59a9.16,9.16,0,0,1,9.15,9.11v45.21a9.16,9.16,0,0,1-9.15,9.11h-1.59a9.15,9.15,0,0,1-9.14-9.11V141.62a9.15,9.15,0,0,1,9.14-9.11m.68-8.21h0c-38.46,0-36.77,78.71,0,78.71S151.29,124.3,112.83,124.3Z" style="fill-rule: evenodd"/>
    <path d="M167.41,135.08h-.24v36.35h.24c17,0,17.77-36.36,0-36.36m-24.18,1.09V127.8l34-.19a19.62,19.62,0,0,1,6.21,2,25,25,0,0,1,5.57,4.26C205.64,150.16,196.6,178,169.72,180c7.56,1.8,14.5,2.1,20.1-1.45q3.84,17.83,16.44,16.75l0,7.6-23.06,0c-1.43-9.8-7-15.2-16.26-16.75l-.18,8.92,6.76.19.08,7.76H143.05l.06-7.93,6.15,0-.36-59Z" style="fill-rule: evenodd"/>
    <path d="M234.36,125.84h0c-37.45,0-36.28,75.69-1.32,77.55l-8.86,8.85q11.22,7.24,3.84,16.37c11.49-3,16.42-11.22,10.93-21.13l-3.09-4.09a22.21,22.21,0,0,0,7.42-1.73q7.62-4.64,10.07-15l-7.18-6.38c-1.5,5.12-2,15.17-10.91,15.17h-1.57a9,9,0,0,1-9-9V141.85a9,9,0,0,1,9-9h1.57c7.85,0,10.05,8.39,10.33,14.61l8.25-1.87-4.58-22.78-9,.19,1.08,3.77a24.82,24.82,0,0,0-6.94-1" style="fill-rule: evenodd"/>
    <path d="M282.78,137.41l4.68,16.67,4.68,16.68H273.43l4.68-16.68Zm-13.68-9.49h37.34v8.14H300.5l15,59.17h6.95V203l-31.87,0v-7.76H298l-4.72-16.94-21.53.39L267.81,195h8.61l0,8-23.59,0V195.1h6.78l16.4-59-6.88,0Z" style="fill-rule: evenodd"/>
    <path d="M167,94.81h0a8.51,8.51,0,0,1-1.19-1.21l-.07-.09-.13-.13a5.63,5.63,0,0,1-1.29-2.58l-.46-2.67-2.07,1.76-.35.29a23.2,23.2,0,0,1-2.27-2l-.37-.42a5.45,5.45,0,0,1-.73-1l0,0,0,0a2.37,2.37,0,0,1-.31-1.13V85.3l.2-2-2,.39-1.24.22-.1-.14-.2-.33a6.11,6.11,0,0,1-.38-.77l0-.08,0-.07a8.8,8.8,0,0,1-.61-1.57l-.63-2.3-1.84,1.52-.22.19a5.3,5.3,0,0,1-1.38-.29L148,79.54l-.65,1.17a3.41,3.41,0,0,1-1.9,1.36,5.68,5.68,0,0,1-1,.22l-.17,0h-.27l-.56-1.68-1.76,1.64a5.26,5.26,0,0,1-2.52,1.1H139a2.52,2.52,0,0,1-.48-1.61,3.79,3.79,0,0,1,.11-.88l.42-1.88H137.1l0-.08a1.68,1.68,0,0,0-.15-.3c0-.09-.09-.18-.13-.28a4.2,4.2,0,0,1-.3-1.48V76.5a2.33,2.33,0,0,1,0-.46l1-3.75-3.31,2-.82.52,0,0a28.56,28.56,0,0,1-3.22,1.93,18.54,18.54,0,0,1-2.18.72l-.37.08a4,4,0,0,0,.11-.92,4.18,4.18,0,0,0-.08-1,11.82,11.82,0,0,0-1.07-2.73l-.67-1.38-1.38.67h0a2.65,2.65,0,0,1-.14-.62l-.22-2.27-2,1A5.79,5.79,0,0,1,120,71v0H120l.5-1.47-3,1-.38.12-.53.18c-.3.1-.67.24-1,.34l-.08-1-1.08-.27a4.45,4.45,0,0,1-2.14-1.18,1.57,1.57,0,0,0-.21-.24,4.8,4.8,0,0,0-.58-.61,3.31,3.31,0,0,0-2-.8,5.26,5.26,0,0,0-.78-.12l-.18,0a7.91,7.91,0,0,1,.9-.81l.58-.49,2-1.36L110.13,63a17.32,17.32,0,0,1-3-2.42l.32-.76L103,56.28h0l.32-.57-4.81-5.18h0l-.06-.69L97.1,48.68l-3.8-4.16-.11-.17.51-.81c-2.31-.92-2.26-1.08-3.94-2.74a17.33,17.33,0,0,1-1.25-2.35l.53-.07,3.8.14c-2-3-1.79-3.26-2.46-6.8l.09-.15.28,0a3,3,0,0,1,.39.14,22.19,22.19,0,0,1,2.06,1.17A7.61,7.61,0,0,0,96.43,34l1.83.17.2.13c.62.4,1,.59,1.23,1.27v0a7.58,7.58,0,0,0,.67,1.41l.56.89,1-.19.1,0c.08.08.16.19.22.25l.09.11a4.31,4.31,0,0,1,.52,1.37,4.46,4.46,0,0,0,.69,1.7c.64.84,1.89,1.73,3,1.44l1.15-.31V37.78h-1.18v-1.4l-1.31,0V34.77L105,34.7V33l-.83,0V31.83h2.7l-.07-.33h.14L107,26l-.12-3.49-.47-.19-.19-1.17-.58-.11V19.2H105V17.47h-.57V16.38h0v-.2c3.36-.06,10.33.29,13.25-.18l-.31.2a22.1,22.1,0,0,1,3.42,1.14v1.13h-.61v.11h0v1.94h-.52v0l0,1.84-.37-.1v0l-.3,0v-.39h-.19l0,1.87h-.29l-.09,2.34h18.88V22.31l-.79-.26V20.82h-.51v-1.4l-1.08-.12V17.47h-.53V16h9.55L145,14.59a14.09,14.09,0,0,1,1.59-1.4l.25-.19h0c.38-.28.76-.55,1.16-.8h0l.37-.22c5.33-3.19,12.43-4.44,18.58-4.47S180.25,8.79,185.58,12l.37.22h0c.4.25.79.52,1.16.8h0l.24.19a15.13,15.13,0,0,1,1.6,1.4L190.19,16h9.15v1.47h-.53V19.3l-1.08.12v1.4h-.51v1.23l-.79.26v3.74H215.7l-.08-2.34h-.3l0-1.87h-.19v.39l-.29,0v0l-.37.1-.05-1.84v0h-.51V18.59h-.06v-.11h-.61V17.34a22.46,22.46,0,0,1,3.42-1.14l-.31-.2c2.93.47,9.9.12,13.26.18v.2h0v1.09H229V19.2h-.7V21l-.59.11-.19,1.17-.46.19L227,26l.13,5.5h.15l-.08.33h2.7V33L229,33V34.7l-.29.07V36.4l-1.31,0v1.4h-1.18v4.51l1.16.31c1.11.29,2.36-.6,3-1.44a4.46,4.46,0,0,0,.69-1.7,4.56,4.56,0,0,1,.52-1.37l.09-.11c.06-.06.14-.17.22-.25l.1,0,1,.19.56-.89a7.58,7.58,0,0,0,.67-1.41v0c.24-.68.61-.87,1.23-1.27l.2-.13,1.83-.17a7.7,7.7,0,0,0,3.24-1.12,20.81,20.81,0,0,1,2-1.17,3,3,0,0,1,.39-.14l.28,0,.09.15c-.67,3.54-.47,3.8-2.46,6.8l3.8-.14.53.07a16.58,16.58,0,0,1-1.86,2l-1,1-1,1-1.31,1.07.51.81-.1.17-3.81,4.16-1.38,1.14-.06.69h0l-4.82,5.18.32.57h0l-4.41,3.53.31.76a17.25,17.25,0,0,1-3,2.42L222,64.25,224,65.61l.58.49a7.91,7.91,0,0,1,.9.81l-.18,0a5.26,5.26,0,0,0-.78.12,3.33,3.33,0,0,0-2,.8,4.8,4.8,0,0,0-.58.61,1.57,1.57,0,0,0-.21.24,4.4,4.4,0,0,1-2.14,1.18l-1.07.27-.09,1c-.34-.1-.71-.24-1-.34l-.54-.18-.38-.12-3-1L214,71H214v0a5.79,5.79,0,0,1-2.06-.61l-2-1-.22,2.27a2.65,2.65,0,0,1-.14.62h0l-1.38-.67-.68,1.38a12.29,12.29,0,0,0-1.07,2.73,4.18,4.18,0,0,0-.08,1,4,4,0,0,0,.11.92l-.37-.08a19.17,19.17,0,0,1-2.18-.72,28.56,28.56,0,0,1-3.22-1.93l0,0-.82-.52-3.31-2,1,3.75a2.33,2.33,0,0,1,0,.46v.41a4.2,4.2,0,0,1-.3,1.48c0,.1-.09.19-.13.28a1.68,1.68,0,0,0-.15.3l0,.08H195l.41,1.88a3.79,3.79,0,0,1,.11.88,2.52,2.52,0,0,1-.48,1.61h-.11a5.26,5.26,0,0,1-2.52-1.1l-1.75-1.64-.57,1.68h-.26l-.18,0a5.86,5.86,0,0,1-1-.22,3.36,3.36,0,0,1-1.89-1.36L186,79.54l-1.25.48a5.31,5.31,0,0,1-1.37.29l-.23-.19-1.83-1.52-.64,2.3a8.1,8.1,0,0,1-.61,1.57l0,.07,0,.08a6.11,6.11,0,0,1-.38.77l-.2.33-.1.14-1.24-.22-2-.39.2,2c0,.06,0,.13,0,.19a2.38,2.38,0,0,1-.32,1.13l0,0,0,0a5.45,5.45,0,0,1-.73,1l-.37.42a22.11,22.11,0,0,1-2.27,2l-.35-.29-2.06-1.76-.46,2.67a5.75,5.75,0,0,1-1.3,2.58l-.13.13-.07.09a8.14,8.14,0,0,1-1.2,1.22M167,6c-7.71,0-14.62,1.84-19.37,4.69h0c-.65.39-1.25.81-1.82,1.23h0l0,.07a14,14,0,0,0-1.88,1.67h0v0l-.7.8h-11v0h-.17v2.67l.22,0v0h.19l.41.06V19h.53V20.8h1.08v1.43h1.3v2.28H119.88v-.42l0-1a4.35,4.35,0,0,1,1,0c0-.76,0-1.54,0-2.32h.84V19.24h.74V16.17l-4.38-1.75H102.23l0,2.71v.48l.65.07v1.59h.57V21h1.22v1.43l.85,0V26l0,4.16h-3.7v3.37h.85v1.54l1.21,0v1.59l1,.06,0,1.46,1.34,0V41.1a1.87,1.87,0,0,1-1.38-.88,3.37,3.37,0,0,1-.42-1.14,5.28,5.28,0,0,0-.82-2l-.11-.13c-.7-.82-.91-.93-1.78-.76a5.83,5.83,0,0,1-.53-1.13c-.25-.71-.46-1.16-1.85-2.06l-.81-1.42c-.54-1-1.06-2.09-1.59-3.12-1.75-3.4-3.4-6.59-5-10.07L91.75,18l-1.92.78.21.43c1.6,3.47,3.21,6.65,4.91,10,.54,1.09,1.09,2.16,1.63,3.26-2.35-.22-3.65-1.93-5.52-2.41L90.67,30l-.16-.12L88,25.47l-2.61-5.28L85.29,20l-2.53-6,0-.07-.44-1.33-.07,0-.11-.29L80.19,13l1.14,3.1,2.06,4.69.08.18.16.32,2.46,5,1.49,2.75.27.42.58,1,.45.64a11.7,11.7,0,0,0,1,5.64l-2,.26-1-1.67L84.5,31.27l-1.1-2.13-.94-2-1.67-4-1.5.54.83,2.3.76,1.92L83,32.12l2.38,4.22,1.68,2.75a17.19,17.19,0,0,0,2.59,3.79c.38.38,1.28.42,2,1l-.06.1.05.86.42.64,4.24,4.64h.09l.6.49,0,.28.29.69.24.15,3.91,4.2,0,0,0,.84.34.46.22.2,3.53,2.83,0,.06v.74a16.24,16.24,0,0,0,3.69,3.17l-.17.12-.62.52a5,5,0,0,0-1.53,1.68l0,.2a.59.59,0,0,0-.07.3,1.23,1.23,0,0,0,.41.91,1.86,1.86,0,0,0,.89.41,3.66,3.66,0,0,0,.42.07,4.36,4.36,0,0,1,.69.12c.89.11,1,.21,1.24.41a2.93,2.93,0,0,1,.46.5.5.5,0,0,1,.15.17,6,6,0,0,0,3,1.73,1.35,1.35,0,0,0,.35.86l.12.19.33.31h.5a13.32,13.32,0,0,0,1.74-.52l.53-.17.37-.13-.19.57h.06l-.32.92,2-.86a7.22,7.22,0,0,0,3.2-.81,4.45,4.45,0,0,0,.41,1.44l.26.65v.51l1.32-.57.36-.17A10.85,10.85,0,0,1,126.1,76a3,3,0,0,1,.05.67,3,3,0,0,1-.11.72l-.08.38-.95,2h0l1-.22,1.34-.29.2,0,.11-.06a3.19,3.19,0,0,1,.57-.14,23,23,0,0,0,2.44-.81,33.29,33.29,0,0,0,3.45-2c.27-.17.55-.37.81-.52a3.45,3.45,0,0,0-.07.86v.41a6,6,0,0,0,.4,2.06c.08.17.14.29.21.42a.89.89,0,0,1,.08.17v0l.57,1h.91a5.8,5.8,0,0,0-.15,1.21,4,4,0,0,0,1,2.74v0l.36.44.2.18.64-.21.33-.08a6.78,6.78,0,0,0,3.24-1.48l.15.44H143l.25.06.89-.06h.13l.27,0a8.15,8.15,0,0,0,1.35-.3,4.75,4.75,0,0,0,2.74-2.06,7.42,7.42,0,0,0,2.09.4h.33l.36-.18.09-.16.26-.22a10.11,10.11,0,0,0,.73,1.87,9.22,9.22,0,0,0,.48,1l.26.4,0,.05v0l.55.82h.44l.36-.07s.72-.11,1.53-.26c0,.11,0,.22,0,.33a3.94,3.94,0,0,0,.5,1.86,6.26,6.26,0,0,0,1,1.36l.4.46a26.19,26.19,0,0,0,2.46,2.22l.86.75,1-.73.44-.35a7.26,7.26,0,0,0,1.69,3.37l.11.11a10.84,10.84,0,0,0,1.74,1.71L167,97l0,0h0l0,0,.64-.73a10.07,10.07,0,0,0,1.74-1.71l.12-.11a7.33,7.33,0,0,0,1.68-3.37l.44.35,1,.73.86-.75A26.19,26.19,0,0,0,176,89.17l.4-.46a6.69,6.69,0,0,0,1-1.36,4,4,0,0,0,.49-1.86c0-.11,0-.22,0-.33.81.15,1.52.26,1.53.26l.36.07h.44l.55-.82v0l0-.05.25-.4a9.22,9.22,0,0,0,.48-1,10.11,10.11,0,0,0,.73-1.87l.26.22.09.16.36.18h.33a7.56,7.56,0,0,0,2.1-.4,4.69,4.69,0,0,0,2.73,2.06,8.15,8.15,0,0,0,1.35.3l.27,0h.13l.89.06.25-.06h.21l.15-.44a6.78,6.78,0,0,0,3.24,1.48l.34.08.63.21.2-.18.37-.44v0a4,4,0,0,0,.95-2.74,5.2,5.2,0,0,0-.15-1.21h.91l.57-1v0a.56.56,0,0,1,.09-.17c.06-.13.13-.25.2-.42a5.76,5.76,0,0,0,.41-2.06V76.5a3,3,0,0,0-.08-.86c.26.15.54.35.81.52a33.29,33.29,0,0,0,3.45,2,23,23,0,0,0,2.44.81,4.07,4.07,0,0,1,.58.14l.1.06.21,0,1.33.29,1,.22h0l-.95-2-.08-.38a3.52,3.52,0,0,1-.11-.72,3,3,0,0,1,0-.67,11.94,11.94,0,0,1,1-2.38l.36.17,1.32.57v-.51l.26-.65a4,4,0,0,0,.41-1.44,7.22,7.22,0,0,0,3.2.81l2,.86-.32-.92h.06l-.19-.57.37.13.53.17a13.32,13.32,0,0,0,1.74.52h.51l.32-.31.13-.19a1.4,1.4,0,0,0,.34-.86,6,6,0,0,0,3-1.73c0-.06.06-.08.15-.17a3.41,3.41,0,0,1,.46-.5c.22-.2.36-.3,1.25-.41a4.08,4.08,0,0,1,.68-.12,3.66,3.66,0,0,0,.42-.07,1.21,1.21,0,0,0,.6-.21,1,1,0,0,0,.29-.2,1.23,1.23,0,0,0,.41-.91.76.76,0,0,0-.06-.3l-.05-.2a5,5,0,0,0-1.53-1.68l-.62-.52-.17-.12a16.3,16.3,0,0,0,3.7-3.17v-.74l0-.06,3.53-2.83.23-.2.33-.46.06-.84,0,0,3.91-4.2.24-.15.29-.69,0-.28.6-.49h.08l4.24-4.64.42-.64,0-.86-.06-.1.32-.25c.27-.28.65-.65,1-1a25,25,0,0,0,3.21-3.49l1.67-2.75L251,32.12l2.15-4.25.77-1.92.82-2.3-1.5-.54-1.66,4-.95,2-1.1,2.13-2.36,4.18-1,1.67L245,36.83l-.93,0c.35-.53,1.29-5.19,1-5.64l.44-.64.59-1,.26-.42,1.49-2.75,2.46-5,.16-.32.08-.18,2.07-4.69L253.8,13l-1.92-.66-.1.29-.08,0L251.26,14l0,.07-2.52,6-.09.16L246,25.47l-2.53,4.45-.16.12-.38.05c-1.88.48-3.18,2.19-5.53,2.41.54-1.1,1.1-2.17,1.63-3.26,1.7-3.37,3.32-6.55,4.92-10l.2-.43L242.24,18l-.19.42c-1.56,3.48-3.21,6.67-5,10.07-.52,1-1.05,2.08-1.59,3.12L234.69,33c-1.39.9-1.6,1.35-1.85,2.06a5.28,5.28,0,0,1-.53,1.13c-.87-.17-1.08-.06-1.78.76l-.11.13a5.26,5.26,0,0,0-.81,2,3.6,3.6,0,0,1-.42,1.14,1.88,1.88,0,0,1-1.39.88V38.22l1.35,0V36.74l1-.06V35.09l1.22,0V33.51h.84V30.14h-3.7l0-4.16V22.42l.84,0V21h1.22V19.28h.57V17.69l.66-.07v-.48l-.05-2.71H215.9l-4.38,1.75v3.07h.74v1.53h.84c0,.78,0,1.56,0,2.32a4.36,4.36,0,0,1,1,0l0,1v.42H198V22.23h1.3V20.8h1.08V19h.53V17.29l.41-.06h.19v0l.22,0V14.51h-.17v0H190.89l-.69-.8v0h0A14.61,14.61,0,0,0,188.3,12l0-.07h0a21.38,21.38,0,0,0-1.82-1.23h0C181.62,7.81,174.71,6,167,6Z" style="fill: #cb9833"/>
    <path d="M229.69,32.8l-44.14.06v-1l3-.06v.06h8.26v-.06H219v.06h8.38v-.06h2.31ZM196,41v1.28l.06.06v-.84C196.05,41.36,196,41.19,196,41Zm-9.36,13H183V48.6l-.07-.78-.07-.78v-.73l-.07-.05-.06-.43v-.24h-.07v-.06l-.12-.48-.07-.25-.19-.72-.32-.66-.19-.72-.39-.73-.39-.61-.32-.59-.07-.12v-.19h-.12l-.27-.3-.43-.66-.53-.54-.46-.55-.57-.54-.58-.48-.52-.49-.06-.06-.64-.41-.58-.43-.65-.36-.64-.42h-.07l-.71-.31-.71-.3-.71-.3-.77-.18-.78-.24-.77-.18-.76-.13-.85,0-.84-.06h-1.67l-.84.06-.78,0-.76.13-.84.18-.78.24-.78.24-.7.24-.71.3h-.07l-.64.36-.71.37-.65.42-.64.37-.58.47-.65.49-1,1-.59.55-.52.59-.38.61-.25.37h-.07v.12l-.13.17-.38.61L152,42l-.33.67-.25.72-.26.72-.26.72-.19.73-.13.72-.12.73-.07.78V54.1h-3.62V47.76l.07-1,.12-.9.21-.85.18-1,.33-.9.32-.85.32-.85.39-.78.52-.78.45-.85.44-.72.59-.78.58-.6.71-.73.64-.6.71-.73.71-.49.78-.6.77-.54.77-.48.83-.42.84-.42.91-.36.9-.36.9-.3,1-.25,1-.18,1-.19,1-.11,1-.06,1-.06,1,.06,1,.06,1,.11,1,.19,1,.18,1,.25.9.3.9.36.9.36.9.42.78.42.84.48.77.54.78.55.7.54.65.67.64.6.65.72.64.67.52.78.51.72.45.79.46.79.38.83.39.79.33.91L186,44l.2,1,.2.85.12,1,.13.9ZM180.57,42v-.36l.26.36Zm.46.48.25.42.2.67.13.24h-1.1l.06-1.33Zm1,3.14h-1.55V44.2h1.29l.2.73.06.24Zm0,1.81h-1.55V46.07h1.55ZM182,49.15h-1.49V47.82h1.55ZM182,51h-1.49V49.63H182Zm0,1.75h-1.49V51.44H182Zm0,1.2h-1.49v-.78H182Zm-3.36-13.75V39l.26.3.45.54.33.42ZM180.06,42h-1.42V40.65H180l.07.12Zm0,1.81h-1.42V42.45h1.42Zm0,1.81h-1.42V44.2h1.42Zm0,1.81h-1.42V46.07h1.42Zm0,1.75h-1.42V47.82h1.42Zm0,1.87h-1.42V49.63h1.42Zm0,1.75h-1.42V51.44h1.42Zm0,1.2-1.42.06v-.84h1.42Zm-3.35-15.62V37.2l.58.49.58.54.2.12Zm1.48,1.87h-1.48V38.83h1.48Zm0,1.75h-1.48V40.65h1.48Zm0,1.81h-1.48V42.45h1.48Zm-.07,1.81h-1.41V44.2h1.41Zm0,1.81h-1.41V46.07h1.41Zm0,1.75h-1.41V47.82h1.41Zm0,1.87h-1.41V49.63h1.41Zm0,1.75h-1.41V51.44h1.41Zm0,1.26h-1.41v-.84h1.41ZM174.9,36.6V36l.64.43.27.17Zm1.35,1.75H174.9V37h1.35Zm0,1.87H174.9V38.83h1.35Zm0,1.75H174.9V40.65h1.35Zm0,1.81H174.9V42.45h1.35Zm0,1.81H174.9V44.2h1.35Zm0,1.81H174.9V46.07h1.35Zm0,1.75H174.9V47.82h1.35Zm0,1.87h-1.41l.06-1.39h1.35Zm0,1.75h-1.41V51.44h1.41Zm0,1.26h-1.41v-.78h1.41Zm-4.83-19.17h-1.55v-.67l.78.12.77.24Zm0,1.74h-1.55V35.27h1.55Zm0,1.75h-1.55V37h1.55Zm0,1.87h-1.55V38.83h1.55Zm0,1.75h-1.55V40.65h1.55Zm-2-7.11h-1.48V34h.39l.83.12h.26Zm0,1.74h-1.48V35.27h1.48Zm0,1.75-1.48.06V37h1.48Zm0,1.87h-1.48V38.83h1.48Zm-1.93-5.36h-1.42v-1h1.42Zm0,1.74h-1.42V35.27h1.42Zm0,1.81h-1.42V37.08h1.42Zm0,14.36h-1.42V51.44h1.42Zm-1.87-17.91h-1.55l.07-.79h.19l.77-.12.52-.06Zm0,1.74h-1.55V35.27h1.55Zm0,1.81h-1.55V37.08h1.55Zm0,1.81h-1.55V38.83h1.55ZM165.56,42l-1.49.06V40.65h1.55Zm0,1.81h-1.49V42.45h1.49Zm-.33,9.47h.33v.6a5.45,5.45,0,0,1,.35.76h1c.09-.18.17-.37.26-.57h-1.13v-.78h1.42a3.89,3.89,0,0,0,0-3.12V51h-1.42V49.63h1.08l-.34-.42h-.74v-.84l-.15-.17a1.54,1.54,0,0,1-.41-.8h-.31a1.84,1.84,0,0,0-.3.43h.66v1.38h-1.14l-.06.42h1.2V51h-1.2c0,.15,0,.29.08.42h1.12v1.33l-.58,0Zm-1.61-18.39h-1.41V34.5l.58-.19.77-.18h.06Zm0,1.74h-1.41V35.27h1.41Zm0,1.81h-1.41V37.08h1.41Zm0,1.81h-1.41V38.83h1.41Zm0,1.81h-1.41V40.65h1.41Zm0,1.75h-1.41V42.45h1.41Zm0,1.81-1.41.06V44.2h1.41ZM161.69,54H159l.07-18.34.13,0,.64-.3.65-.31.7-.23.52-.19-.05,15.85a2.66,2.66,0,0,0,.68.82.56.56,0,0,0,.17-.26h-.41l.07-1.39h.37l0-.42h-.34V47.83h.47a3.66,3.66,0,0,1,.15-.43h-.62V46.07h1.41v.06a5.82,5.82,0,0,1,.48-.54h0V44.2h1.49v.1l.1-.08a2.35,2.35,0,0,0,.45-.44h0V42.45h.61l.06-.48h-.67V40.65h.59a3,3,0,0,0-.09-.43h-.5V38.83h1.42V40c.25.19.52.41.79.65h1.14v1.17a7.47,7.47,0,0,1,.48.63h1.52v1.33h-.86c.05.14.09.28.13.42h.73v1.39h-.5l0,.48h.47V47.4H171c0,.14,0,.28,0,.42h.49v1.33h-.65a3.41,3.41,0,0,1-.09.48h.69a3.78,3.78,0,0,0,.29-.7c.1-.38.18-.71.23-1l.05-13.26.19.06.71.3.71.24.71.37.12.11V54h-2.51V53q-.21.25-.45.51V54h-.55c-.21.2-.44.39-.66.57l16.87,0V47.7l-.12-1-.13-1-.13-.91-.26-.9-.26-.9V43l-.32-.85-.39-.85-.38-.84-.45-.78-.52-.85v-.06l-.52-.72-.51-.73v0H183l-.64-.67-.58-.72-.64-.61-.71-.66-.77-.6-.78-.54-.78-.55-.83-.47-.84-.49-.91-.42-.89-.37-.91-.35-1-.31h-.07l-.9-.24-1-.24-1-.12-1-.13-1-.05-1-.06-1.1.06-1,.05-1,.13-1,.18-1,.18-1,.24-1,.36-.9.3-.91.43L157,32l-.83.49-.91.47-.77.61-.77.54-.71.54-.71.73-.71.6-.64.72-.58.66-.65.79-.45.72-.51.85-.46.78-.45.84-.39.85-.25.91-.33.9-.25,1-.13.9-.13,1-.06,1v6.88l16.74,0c-.2-.18-.41-.37-.62-.58h-.33v-.35c-.15-.16-.3-.34-.45-.52Zm-3.1-17.43h-1l.32-.17.65-.43h.06Zm0,1.81h-1.36V37.08h1.36Zm0,1.81h-1.36V38.83h1.36Zm0,1.81h-1.36V40.7h1.36Zm0,1.75h-1.36V42.45h1.36Zm0,1.87h-1.36V44.26l1.36-.06Zm0,1.75h-1.36V46.07h1.36Zm0,1.81h-1.36V47.83h1.36Zm0,1.81h-1.36V49.63h1.36Zm0,1.81h-1.36V51.44h1.36Zm0,1.2h-1.36v-.78h1.36Zm-1.8-15.62h-1.42l.19-.18.52-.48.58-.48.13-.13Zm0,1.81h-1.48V38.83h1.48Zm0,1.81h-1.48V40.7h1.48Zm0,1.75h-1.48V42.45h1.48Zm0,1.87h-1.48V44.26h1.48Zm0,1.75h-1.48V46.07h1.48Zm-.06,1.81H155.3V47.88l1.43-.06Zm0,1.81H155.3V49.63h1.43Zm0,1.81H155.3V51.44h1.43Zm0,1.2H155.3v-.78h1.43Zm-1.87-13.81h-1.1l.26-.42.51-.54.33-.36Zm0,1.81h-1.49V40.82l.13-.17v.05h1.36Zm0,1.75h-1.49V42.45h1.49Zm0,1.87h-1.49V44.26h1.49Zm0,1.75h-1.49V46.07h1.49Zm0,1.81h-1.49V47.88h1.49Zm0,1.81h-1.49V49.63h1.49Zm0,1.81h-1.49V51.44h1.49Zm0,1.2h-1.49v-.78h1.49Zm-2-12h-.33l.26-.42.07-.13Zm0,1.75h-1.1l.13-.17.26-.74.19-.42h.52Zm0,1.87h-1.42v-.6h-.07V45l.26-.72h1.23Zm0,1.75h-1.42V46.07h1.42Zm0,1.81h-1.42V47.88h1.42Zm0,1.81h-1.42V49.63h1.42Zm0,1.81h-1.42V51.5l1.42-.06Zm0,1.2h-1.42v-.78h1.42ZM151,47.4h-.07l.07-.3Zm0,1.81h-.07V47.88H151ZM151,51h-.07V49.63H151Zm0,1.81h-.07V51.5H151Zm0,1.2h-.07v-.78H151ZM104.64,34.67V33.41l42.41-.07v1.27l-15.64,0c.39.15.73.31,1,.45h14.1v1.27l-11.15,0a2.78,2.78,0,0,0,.26.32l.1.1,9.69,0v1h-8.61a4.89,4.89,0,0,1,.74,1.06v-.64h7.36L144.87,58a2,2,0,0,0,.12.21l.39.59V38.18h.51v-1.4H147V35.09h.52V33.34h.84V31.42h-3.28V22.61h.51V21.16h1.1V19.47h.52V17.72H148V15.86h-1.16l.06-.37v.06l.33-.48.25-.42.39-.42.45-.49.46-.36.51-.36.52-.42v.05l.58-.35.58-.36.7-.31.65-.24,1.48-.61,1.42-.42,1.55-.42,1.61-.3L160,9.35l1.55-.2L162.91,9l1.42-.13,1.23,0h2.57l1.29,0,1.35.13,1.49.17,1.55.2,1.54.29,1.55.3,1.55.42,1.48.42,1.48.55.65.3.57.31.72.29.57.37,1,.72.46.42.39.43.38.41.32.43.26.48.2.49-.06-.18h-1.29v1.86h.83v1.75H187v1.75h1v1.39h.58v8.81h-3.47v1.92h1V35h.58v1.75l1-.06v1.46h.52V57.75h0c.06.07.13.18.2.18v.81h.25V38.11H196V40.9a4.21,4.21,0,0,1,.38-1.73l.06-.13v-.93H197l.25-.27.15-.17-9.3,0v-1h10.35c.11-.11.17-.21.28-.32l.08-.12-11.75,0V35l14.8,0c.28-.13.6-.28,1-.42l-16.34,0V33.28H229v1.27l-21.78,0V35l21.2,0v1.27l-21.13,0c0,.15,0,.3,0,.45h20.07v.91l-19.95,0c0,.15,0,.3.07.45H219V40l.25,0V37.87h7.87v4.54l.2.08.06-4.38h.52V36.72h1V35h.58V33.28h.71v-2h-2.77V22.55h.52V21.1h1V19.35h.52V17.72l.19-.06h.26V16h-.26v-.24h-13v-.07l-.19.07-.32-.31v.31h-.33l.13.17-3.54,1.33-.13.07v.29h-.08v.25l.08,1.08v.3l.26-.11-.08.05h.08l.51.06.06,1v.6l.2-.07h.06l.26.07v1.87l.32-.12-.13.06h.78l.06,1.09v.36l.26-.13h.26v1.64H196.88l-.06-.31V22.55h.58V21.1h1V19.41H199V17.66h.84V15.8h-9.41l-.65-.85v-.06l-.9-.85-1-.78-1.1-.78-1.21-.79-1.3-.72h-.07l-1.42-.61-1.48-.59-1.6-.55-3.29-.85L174.52,8l-1.81-.25-1.94-.18-2-.12-1.93-.06-2,.06-2,.12L161,7.77,159.11,8l-1.8.35-1.75.43L154,9.28l-1.61.49-1.54.66-1.36.6-1.36.72-1.22.73-1.1.78h-.06l-.91.85-.89.84h-.07V15l-.64.85h-9.42v1.86h.84v1.75h.52v1.75h1.1v1.39h.51v3.08H118.43V24.12h.32l.26.11v-1.5h.71l.26.3V21l.26-.06h.13l.19.06V20l.07-.61.51-.06.07-.06h-.07l.26.06V17.36l-.19-.05-3.87-1.45-.32-.12v.12l-13.48.05v.19l-.07,1.5v.25h.72v1.62h.52v1.75h1l-.06,1.45h.58v8.8h-3v1.94h.83v1.68h.59v1.75h1v1.39h.51v4.54l.26-.09V38h7.87v2.15l.26,0V38.23l12,0c0-.14.06-.28.08-.42l-20.49,0v-1l20.61,0c0-.14,0-.28,0-.42l-21.68,0V35.09h21.73V35c0-.1,0-.21,0-.31ZM103.8,33V31.9h2.45V32h8.32V31.9l22.17-.06v.06h8.32v-.06h2.83v1.08Zm10.32-1.52H106.7v-8.8h7.42Zm-7.94-9.22v-1h8.45v1h-.19l-.26-.06v.06Zm-1-1.46V19.47h10.51v1.27H115l-.32-.06v.06Zm-.51-1.74V17.78h11.53v1.27h-.26l-.25-.12v.12Zm-.45-1.69H104l.07-1h13v1.2l-.52-.18h.19v-.05h-.19l-.33-.07v.07ZM120,19.17v1.15l-3.35-1.2V17.85Zm-2.51-2.77,3.35,1.26v1l-3.35-1.27Zm1.29,5.85-3.55-1.33.39.12Zm.71-1.39v1.26l-3.42-1.2V19.6Zm-3.36-1.74h0l3.62,1.38Zm-1,3.19v-1l3.35,1.21v1l.32.12Zm3.41,1.74Zm18.18,2.18v1.08l-.64-.24h-.84l-.26.07-.06.06-.14.11-.19.06-.19.12h-.06v.07l-.13.12H134l-.2.05-.33.07h-.25l-.26-.07-.26-.05-.19-.19-.39-.18-.32-.17v-.07l-.38-.05V27h-.91V27l-.45.05v.07l-.38.12-.52.23h-.07l-.19.19-.2.05h-.38l-.33.07h-.64l-.32-.12-.26-.19-.38-.12v-.06h-.07L126,27.2l-.38-.06v-.07h-.46V27h-.46v.05l-.57.07-.52.12h-.06l-.58.23-.33.19-.31.05h-.07l-.32.07h-1.1l-.32-.12-.32-.19-.39-.12v-.06l-.45-.11-.39-.06h-.39l-.83.12h-.06l-.2,0,.71-1Zm.2,1.68-.2-.11v1l-.64-.18-.45-.06h-.52l-.19.06-.27.13h-.06l-.13.11h-.06v.06l-.19.12-.13.13-.19,0H134l-.31.06h-.52l-.32-.06-.26,0-.25-.13-.27-.18-.06-.06-.39-.18-.44-.12-.39-.06h-.07l-.38.06h-.07l-.39.12-.51.18-.52.24-.2.13-.31,0-.33.06h-.64l-.45-.06-.32,0-.27-.13-.32-.18-.38-.11V28.7h-.07l-.44-.06-.39-.06h-.52l-.52.06-.64.18-.64.24-.33.13-.38,0h.06l-.45.06-.39.06-.39-.06-.38-.06h-.32l-.33-.18-.32-.18-.06-.06-.46-.12-.44-.06h-.39l-.84.13h-.07l-.83.29.45-.18.64-1h-.06l.77-.18.84-.12h.25l.34.07.44.05.26.18.39.19h.06l.32.12h.06l.33.06h1l.4-.12h-.07l.38-.06h.07l.33-.19.58-.23.51-.07.51-.12h.32l.46.07.32.05.32.12.33.18.32.13v.06l.38.12h.07l.32.06h.45l.32-.06.39-.06.32-.06.07-.06.25-.18.45-.18.4-.19.31-.06h.72l.32.06.26.19.32.18.26.18h.06v.06l.32.06v.06h.32v.06h.39l.33-.06.26-.06.25-.06.06-.06h.07l.2-.18.12-.06.19-.12.13-.12H136l.64.17Zm-.2,2.48-.71-.24-.45-.06h-.06l-.46.06-.26.06-.19.06h-.06l-.19.12-.07.06-.12.12-.13.06-.27.13-.32.06-.26.05h-.25l-.39-.05h.06l-.31-.06-.27-.19-.31-.25h-.07l-.32-.17h-.07l-.39-.12h-.06l-.39-.06h-.06l-.46.06-.51.12-.45.17h-.06l-.46.25-.25.12-.33.07-.38.06-.32.05-.39-.05-.39-.06-.32-.07-.33-.12-.38-.18-.39-.12-.38-.12h-.07l-.46-.06h-.51l-.64.06-.65.17-.64.25-.38.12-.4.13.07-.06-.45.06-.39.05h-.44l-.39-.05-.39-.06-.32-.19-.45-.18-.46-.12-.45-.06h-.45l-.84.11-.9.25.58-.18.64-1v.06l.85-.25.83-.12h.26l.45.07h-.06l.38,0,.33.25.39.18h.06l.32.06.45.05h.9l.45-.05.45-.13.27-.11.71-.25.58-.18-.07.06.45-.06h.45l.38.06h.39l.72.37.32.11.32.07.06.06.39.05H128l.33-.05h.06v-.06l.32-.07h.07v-.06l.26-.05.45-.25.45-.18.39-.12H131l.39.12.33.18.31.19.32.17h.07l.26.07.32.06h.77l.27-.06h.06l.26-.13.19-.11.2-.19.19,0,.12-.13.2-.06h.32l.39.06.64.18.33.19-.2-.07v1l.39.18ZM115,31l.9-.23.84-.13-.06.06h.45l-.06-.06.45.06h-.06l.45.13h-.07l.46.17.31.12.07.06.39.07.06.06.39.06h.58l.38-.06.45-.06.46-.13.32-.12.71-.23.58-.19h-.07l.58-.06H124l.46.06.38.12.32.13.39.12.33.17h.06v.06h.38l.4.07.45.06h.06l.33-.06.38-.07.39-.11.31-.07.52-.23h-.06l.51-.19h-.06l.45-.12v.06l.39-.06.39.06v-.06l.39.12.32.19.32.18.33.17.31.13h.07l.32.06h.45l.32-.06.26-.07h.07l.32-.11.19-.12h.06l.13-.18.14-.07.19-.06.25-.06.39-.06.39.06.58.25.19.05v.55H114.82l.33-.43Zm-.44.85h0l-.39-.12Zm-.26-9.17,3.74,1.38-3.42-1.26,3.29,1.2v1.88l-3.29,5.07V22.79Zm30.23-.06v8.86h-7.35l.07-8.86Zm-7.86-.43v-1l8.44-.06v1Zm-1-2.71h10.5v1.27h-10.5Zm-.59-.48.07-1.27h11.6V19Zm-.83-2.71h13.34v1H134.23Zm10-1,.9-.78.9-.85,1.17-.78,1.15-.72,1.29-.73,1.36-.61,1.48-.6,1.61-.48,1.61-.42,1.67-.48,1.82-.31,1.87-.3L162.91,8l1.94-.13,2-.06,1.93.06,1.93.13,1.94.17,1.8.3,1.8.31,1.62.42,1.68.42,1.54.54,1.49.6,1.41.61,1.29.73,1.16.66,1.09.78,1,.85.91.79.45.6h-2.45l-.25-.49-.2-.48v-.06h-.06l-.33-.42-.39-.49-.44-.42v-.06l-.46-.36-.58-.42-.52-.37-.64-.36-.64-.36-.65-.3-.64-.3-1.55-.55-1.48-.42L177,9.52l-1.61-.3-1.55-.3-1.55-.24-1.48-.12-1.35-.12-1.36-.07h-2.57l-1.23.07-1.48.12-1.42.18-1.55.18-1.54.3-1.68.36-1.55.36-1.49.42-1.47.61-.65.24-.7.36-.66.37-.57.29v.07l-.52.35-.58.37-.45.42H148l-.38.48-.45.43v.06l-.33.42-.32.48v.06l-.19.49h-2.52Zm55.11,2H186.05v-1h13.28Zm-.83,1.69H186.9V17.66h11.6ZM198,20.68H187.41V19.41H198Zm-1.61,10.74H189V22.55h7.35Zm.51-9.3H188.5v-1l8.38-.06Zm18.51,4.05.71,1.09.51.11-.84-.17v-.06l-.78-.07h-.44l-.39.07h-.07l-.32.12h-.06l-.32.11-.39.19-.32.12h.06l-.44.05h-.72l-.38-.12-.33-.05-.25-.13h-.07L210,27.2l-.58-.13-.51-.12h-.52L208,27h-.05l-.39.12h-.06l-.26.12-.39.17-.25.13-.39.12h.06l-.38.05h-.27l-.37-.05-.33-.07-.26-.05-.19-.13h-.08l-.44-.23-.45-.18-.46-.13h-.89l-.33.13h-.06l-.33.18h-.06l-.32.23-.13.13-.32.12-.26.05H200l-.32-.05-.26-.07h-.13l-.12-.12v-.06h-.07l-.13-.12-.2-.11h-.06l-.19-.13h-.06l-.13-.05h-1l-.58.24V26.17Zm-.65-2.65.32-.13v-.9l3.42-1.27v1Zm-2.06-5.92,3.42-1.26v1l-3.42,1.26Zm4.25.12V19l-3.41,1.27V19.05Zm-.39-1.51h12.83v1h-12v-.06l-.26.06h-.19v.06h.13l-.52.18ZM229,18.93H218v-.12l-.32.12h-.26V17.66H229Zm-14.24,3.19,3.22-1.2.33-.13Zm2.71-2.65v1.32l-3.36,1.28V20.74Zm-3.68.91h0L217.38,19h.07l.13-.06Zm14.63.23h-9.47v-.05l-.26.05-.71.07V19.35H228.4Zm-12.76,5.13v-1.8L217.9,23l-2.39.91,3.81-1.39-.39.12v8.15Zm-18.82,5.08.19-.13.65-.18.38-.06.39.06h-.06l.25.06.13.06.2.06.12.13.07.05.19.12.26.12h.06l.33.06.32.07h.45l.33-.07h.06l.32-.11.32-.19.39-.24.32-.12h-.07l.46-.12h-.07l.39-.07.39.07.45.12.46.12.44.24.32.12.32.12.39.06.46.07h.06l.38-.07.39-.06.39-.05h.07l.38-.19.33-.18.32-.12.44-.06h-.06l.45-.06H210l.51.06.58.12.71.24.31.12.39.12h.07l.45.06.46.07H214l.46-.07h.07l.38-.11.38-.19.39-.18.39-.12v.06l.39-.12-.07.06h.52l-.07-.06.84.12.9.24h-.13l.33.49H196.82Zm.19-1.63.58-.19.39-.06h.39l.06.06.19.06v.06l.19.07.2.17.2.13.25.11h.07l.32.07h.64l.39-.07.26-.06h.13l.26-.18.32-.24v.07l.32-.19.32-.12.39-.06.39.06h-.07l.39.12.45.12.39.24h.07l.31.13.26.11h.07l.38.07h.84l.33-.07h.06l.32-.11.39-.13.7-.3.33-.06.45-.06h.45l.45.06.58.19.58.17.38.13.39.11h.07l.31.07.46.06h.07l.38-.06.46-.07.38-.06H214l.39-.18.32-.24.39-.06.33-.06h.38l.77.12.84.24V29.3l.71,1,.58.18-.9-.24h-.06l-.84-.12h-.52l-.39.06h-.06l-.39.12h-.06l-.39.18-.39.18-.32.13v-.07l-.45.07h-.32l-.45-.07h-.45l-.32-.12-.39-.12-.71-.24-.58-.12V30h-.06L210.1,30h-.58l-.45.06v.06l-.45.06-.39.12-.39.18-.26.18-.45.06h-.32l-.38.13-.39-.06-.32-.07-.26-.12-.32-.12-.45-.18-.52-.18-.52-.12-.38-.06h-.07l-.45.06-.45.12-.38.18-.39.24-.26.12-.33.13H201l-.32.06h-.26l-.32-.06-.33-.07-.25-.12-.13-.06-.13-.19h-.06l-.26-.11-.2-.06-.25-.06L198,30H198l-.39.06h-.06l-.65.23-.45.19.39-.19V29.24Zm4.91-1.76.31-.12h.71l.39.12h-.06l.45.18.45.19.18.18h.15l.25.06.39.06.38.06h.39l.39-.06.39-.12h.06l.25-.18.4-.19.25-.05.38-.13.4-.06h.32l.57.12.52.12.52.19.32.18h.06l.39.06h-.07l.46.12h.84l.44-.06.39-.12.39-.18.32-.19.32-.05.39-.07h.32l.78.12h-.07l.84.19h-.06l.64,1,.45.17-.84-.3-.83-.12h-.52l-.33.06h-.06l-.38.12h-.06v.07l-.4.23.07-.06-.32.18-.4.07-.44,0-.39.06-.38-.06-.33,0-.38-.13-.39-.12-.58-.17-.58-.19h-.07l-.45-.06h-.57l-.45.06-.4.06H208l-.31.18-.32.12-.39.12-.33.13-.31,0h-.72l-.32,0-.32-.13-.25-.12V29l-.39-.23h-.07l-.45-.19-.45-.12-.45-.06h-.07l-.39.06h-.06l-.38.12-.39.19-.39.23-.19.12-.26.07-.32,0h-.52l-.26,0-.19-.13-.13-.06-.19-.12v-.06h-.07l-.26-.12-.12-.12h-.07l-.19-.06h-.52l-.38.06h-.07l-.64.19v-1l.19-.05.52-.25h.71l.13.06.19.12.19.07.13.12.19.11V28h.07l.19.06.32.06.33.06h.45l.26-.06h.06L201,28h.07l.25-.18.32-.24-.06.05Zm24.94,3.93h-7.35V22.55h7.35Zm.58-9.29h-8V22l-.25.06h-.26v-1h8.51Z" style="fill: #cb9833"/>
    <path d="M164.07,85.45a.42.42,0,0,0-.38,0c-.19.17-.58.53-1,.87-.2.17-.45.35-.65.53a.37.37,0,0,1-.2.11l-.07.06a.59.59,0,0,0-.24-.17l-.65-.59a.78.78,0,0,0-.2-.23,1.2,1.2,0,0,1-.12-.12.27.27,0,0,0-.39,0,.24.24,0,0,0-.06.35,5.64,5.64,0,0,0,.57.76,2.21,2.21,0,0,0,.52.58.47.47,0,0,0,.26.24.51.51,0,0,0,.31.12.73.73,0,0,0,.4-.12c.13-.12.32-.24.52-.41s.64-.58.9-.87a3.22,3.22,0,0,1,.38-.47c.07-.11.2-.23.2-.29s.06-.3-.07-.35m-3.74-15.92a1.59,1.59,0,0,0,.39.23.59.59,0,0,0,.38.17h.07c.13,0,.19-.06.33-.06a9.07,9.07,0,0,0,.9-.7c.12-.17.26-.29.39-.46a1.52,1.52,0,0,0,.25-.35c.07-.11.07-.3-.07-.35a.31.31,0,0,0-.38,0c-.19.12-.45.36-.71.53a5.26,5.26,0,0,1-.45.29c-.13.06-.2.06-.26.12a1,1,0,0,0-.25-.12,8.86,8.86,0,0,1-1.17-.82.32.32,0,0,0-.38,0c-.13,0-.13.24-.13.35a3.66,3.66,0,0,1,.32.46Zm-2.26,4.14a5.27,5.27,0,0,1-1.22.41,3.9,3.9,0,0,1-.7.17,2.87,2.87,0,0,1-.52.11V74.3a4.74,4.74,0,0,1-.39-.81,1.45,1.45,0,0,1-.13-.41.46.46,0,0,1-.06-.17c-.07-.12-.19-.23-.32-.17a.26.26,0,0,0-.26.29,8.06,8.06,0,0,0,.19.94,1.48,1.48,0,0,0,.2.75A1,1,0,0,0,155,75c0,.06.13.18.26.24h.2a3.75,3.75,0,0,0,.71-.12,11.73,11.73,0,0,0,1.28-.47,2.85,2.85,0,0,0,.58-.29c.2-.06.33-.11.39-.22s.13-.24.06-.36S158.21,73.67,158.07,73.67Zm0,6.76c-.19.06-.64.12-1.09.23s-1,.12-1.35.12h-.07v-.06a6.42,6.42,0,0,1-.26-.87,1,1,0,0,1-.06-.41.19.19,0,0,1-.06-.12c0-.17-.13-.23-.32-.23a.27.27,0,0,0-.26.23v.18a7.89,7.89,0,0,0,.06,1.1c0,.18.07.42.07.59s.06.18.13.24.06.11.19.23a.72.72,0,0,1,.32,0,3.53,3.53,0,0,0,.71-.11,7.77,7.77,0,0,0,1.28-.29,2.18,2.18,0,0,1,.59-.23l.39-.18a.21.21,0,0,0,.12-.3C158.4,80.43,158.27,80.37,158.07,80.43Zm21.21-7.69c-.13-.06-.25.05-.32.17a.54.54,0,0,1-.06.23,6.75,6.75,0,0,1-.33.83l-.18.33v.06a2.13,2.13,0,0,1-.46-.11,13.44,13.44,0,0,1-2-.58c-.12,0-.32,0-.39.11s-.06.3.07.36a3,3,0,0,0,.58.35c.32.16.84.34,1.29.51l.58.18a1.7,1.7,0,0,0,.51.06h.2a.78.78,0,0,0,.33-.24c.05-.17.12-.35.18-.58a7,7,0,0,0,.27-1.39A.27.27,0,0,0,179.28,72.74Zm-10.44,17.2c-.19-.11-.32-.06-.38.06s-.46.35-.78.52a2.06,2.06,0,0,1-.45.29c-.06.06-.13.06-.19.12s-.19-.06-.26-.12a10.12,10.12,0,0,1-1.16-.81c-.13-.12-.26-.17-.39-.06a.25.25,0,0,0-.12.35,1.84,1.84,0,0,0,.32.41,4.21,4.21,0,0,0,.77.75c.13.06.26.18.38.24a.6.6,0,0,0,.39.17H167a.68.68,0,0,0,.32-.11,3.69,3.69,0,0,0,.9-.65c.13-.17.26-.29.39-.46a1.21,1.21,0,0,0,.25-.35A.31.31,0,0,0,168.84,89.94ZM178.9,79.26c-.19,0-.33.12-.33.24a.85.85,0,0,1-.06.23,2.1,2.1,0,0,1-.19.82,1.87,1.87,0,0,1-.07.35c0,.06-.06.06-.06.12h-.06c-.33,0-.84-.12-1.36-.18s-.9-.18-1.09-.18a.25.25,0,0,0-.33.12.3.3,0,0,0,.07.35,4.88,4.88,0,0,0,.58.24c.39.12.84.23,1.22.34s.91.18,1.17.18a.86.86,0,0,0,.38-.06v0c.06,0,.13-.12.19-.18s.07-.23.14-.35a12.64,12.64,0,0,0,.05-1.35v-.4A.26.26,0,0,0,178.9,79.26ZM174.9,68a.32.32,0,0,0-.38,0,3.8,3.8,0,0,1-.71.53,2,2,0,0,1-.46.29c0,.06-.12.06-.19.12s-.19-.06-.26-.12a9.38,9.38,0,0,1-1.16-.82.32.32,0,0,0-.38,0,.26.26,0,0,0-.13.35,3.58,3.58,0,0,0,.32.46,9,9,0,0,0,.77.71,1.59,1.59,0,0,0,.39.23.49.49,0,0,0,.39.17h.06c.14,0,.19-.06.25-.06a3.9,3.9,0,0,0,1-.7c.14-.17.27-.29.39-.46a1.32,1.32,0,0,0,.26-.35A.26.26,0,0,0,174.9,68ZM174,85.74c-.13-.12-.25,0-.39.06l-.2.18c-.11.16-.38.4-.57.63a1.26,1.26,0,0,0-.32.24l-.07.05a.05.05,0,0,0-.06-.05c-.19-.12-.65-.41-1-.71a10.3,10.3,0,0,1-.9-.75.46.46,0,0,0-.4,0,.33.33,0,0,0-.06.35,1.54,1.54,0,0,0,.46.52,6.9,6.9,0,0,0,1,1,3,3,0,0,0,.52.41c.07.06.13.06.2.12a.39.39,0,0,0,.25.06h.07a.49.49,0,0,0,.32-.12,2.32,2.32,0,0,1,.46-.4c.38-.53.83-1.23.83-1.23A.27.27,0,0,0,174,85.74ZM162.79,65.68a.26.26,0,0,0,.38.06,6.81,6.81,0,0,1,3.48-.94h.71a6.81,6.81,0,0,1,3.48.94.3.3,0,0,0,.2.05c.06,0,.12-.05.25-.11a.25.25,0,0,0-.06-.35A6.13,6.13,0,0,0,167.36,64h-.71a6.09,6.09,0,0,0-3.86,1.35A.21.21,0,0,0,162.79,65.68Zm23.46-1.35a8.1,8.1,0,0,1,1.68-.17,18.18,18.18,0,0,1,2.57.23h.07a.37.37,0,0,0,.25-.11c.07-.12.07-.24,0-.3a4.17,4.17,0,0,1-1-2.5v-.12c0-.12,0-.23-.19-.23s-.25,0-.39.06a2.67,2.67,0,0,1-1.61,1.1,8.74,8.74,0,0,1-2.25.18h-1.23a.34.34,0,0,0-.32.17c0,.12,0,.24.12.3a7.14,7.14,0,0,0,2.13,1.34A.3.3,0,0,0,186.25,64.33Zm14.83-16h.06a.27.27,0,0,0,.25-.3,3.69,3.69,0,0,1-.06-.81A12.16,12.16,0,0,1,203.27,41a14.85,14.85,0,0,1,1.35-1.81,6.22,6.22,0,0,1,.45-.53c.07-.06.07-.11.14-.11V38.5a.26.26,0,0,0,0-.35.46.46,0,0,0-.45-.06,8.67,8.67,0,0,0-3.48,4,10.93,10.93,0,0,0-.77,4,6.38,6.38,0,0,0,.25,2.1C200.81,48.3,200.94,48.36,201.08,48.36ZM149.89,62.47h-1.23a8.74,8.74,0,0,1-2.25-.18,3,3,0,0,1-1.62-1.1.4.4,0,0,0-.38-.06c-.13,0-.19.11-.19.23v.12a4.1,4.1,0,0,1-1,2.5c-.07.06-.07.18,0,.3a.37.37,0,0,0,.25.11h.07a18.33,18.33,0,0,1,2.58-.23,8.25,8.25,0,0,1,1.68.17.25.25,0,0,0,.18,0,8.88,8.88,0,0,0,2.2-1.34.25.25,0,0,0,.07-.3A.37.37,0,0,0,149.89,62.47Zm73,3.15a17.15,17.15,0,0,1-9.29-2.92,12.64,12.64,0,0,1-2.12-1.81c-.19-.23-.39-.41-.52-.58s-.06-.11-.13-.17v-.06h-.06l-.07-.06h-.32c-.06.06-.06.12-.12.18v.16a.06.06,0,0,1,.06.06,7.14,7.14,0,0,0,2.77,3.27,15.53,15.53,0,0,0,5.8,2.1,20.51,20.51,0,0,0,3.87.36h.13a.28.28,0,0,0,.26-.24A.29.29,0,0,0,222.93,65.62ZM192.37,75l-.13-.06L190.76,74c-.32-.24-.64-.53-.9-.76a2.09,2.09,0,0,1-.51-.76.19.19,0,0,1-.08-.18v0h.14c.06-.06.19-.06.33-.06a10,10,0,0,1,1.21.17,4.38,4.38,0,0,1,.52.18h.12c.08,0,.08.06.08.06a.25.25,0,0,0,.19-.06c.13,0,.13-.06.2-.12v-.17c-.07-.11-.14-.18-.2-.18a8.6,8.6,0,0,1-3.61-2.16,19.27,19.27,0,0,1-2.64-3.15.31.31,0,0,0-.39-.11.24.24,0,0,0-.13.35,22.22,22.22,0,0,0,1.74,3.9,16,16,0,0,0,2.26,2.86,6,6,0,0,0,3.09,1.75h.06a.3.3,0,0,0,.26-.17A.28.28,0,0,0,192.37,75Zm8-13.47a.33.33,0,0,0-.38.12,6.45,6.45,0,0,1-3.23,2.92,8.58,8.58,0,0,1-1.28.34,1.23,1.23,0,0,1-.39.06H195c-.13,0-.26.07-.26.19a.2.2,0,0,0,.13.28,31.11,31.11,0,0,0,2.84,1.64h.19c.06,0,.13,0,.19-.13a6.31,6.31,0,0,0,1-1.39,31.14,31.14,0,0,0,1.55-3.68A.35.35,0,0,0,200.36,61.53ZM208.3,53a23.78,23.78,0,0,0-5.74-.87,8.27,8.27,0,0,0-2.45.29,3.51,3.51,0,0,0-1.87,1.16.16.16,0,0,0,0,.3c0,.11.19.11.26.11h.12a17.58,17.58,0,0,1,3.74-.52,4.3,4.3,0,0,1,1.75.29,3.75,3.75,0,0,0,1.54.35,7.79,7.79,0,0,0,2.71-.64c.13-.06.13-.11.13-.24A.21.21,0,0,0,208.3,53ZM179.61,63.28a.5.5,0,0,0-.39.06.32.32,0,0,0,0,.35,3.5,3.5,0,0,1,.64,1.47c0,.28.07.52.07.75a1.85,1.85,0,0,1-.38,1.23,1.34,1.34,0,0,1-1,.46,1.47,1.47,0,0,1-.51-.07,1.17,1.17,0,0,1-.71-.39,1.2,1.2,0,0,1-.2-.7,4.55,4.55,0,0,1,.52-1.76,1.68,1.68,0,0,0,.26-.87,2.52,2.52,0,0,0-.39-1.23,4.68,4.68,0,0,0-.64-.7v-.06H177a1.67,1.67,0,0,1,.51.06h.26a1.29,1.29,0,0,0,.84-.23A.93.93,0,0,0,179,61a1.15,1.15,0,0,0-.45-.87,1,1,0,0,0-.83-.42,3,3,0,0,0-1.23.48,8.6,8.6,0,0,0-.84.7,1.54,1.54,0,0,0-.19.17.46.46,0,0,0-.07.29.61.61,0,0,0,.13.35c.06.12.26.23.39.41s.39.41.58.64a1.76,1.76,0,0,1,.39,1,1.5,1.5,0,0,1-1.1,1.41,1.7,1.7,0,0,0-.26,0,.64.64,0,0,1-.38-.12,1,1,0,0,1-.39-.52,2.55,2.55,0,0,0-.13-.29v-.12l.07-.06.12-.12v0c.07-.06.07-.06.07-.18a.18.18,0,0,0-.07-.17c-.06-.06-.12-.06-.19-.12h-.13c-.13,0-.32.06-.58.06l-.06.06a2.1,2.1,0,0,1-.51.05,1.22,1.22,0,0,1-.91-.29.35.35,0,0,0-.19-.11h.12a1.56,1.56,0,0,0,.91-.29,1.92,1.92,0,0,0,.77-1.06,1.8,1.8,0,0,0,.19-.75,2,2,0,0,0-.84-1.58,3,3,0,0,0-1.54-.47,1.89,1.89,0,0,0-.84.12,1.72,1.72,0,0,0-.58.59,1.07,1.07,0,0,0-.2.63,2.49,2.49,0,0,0,.13.71c.07.11.14.17.2.17a.3.3,0,0,0,.32-.06,1,1,0,0,1,.32-.05.75.75,0,0,1,.39.11c.13.06.19.12.19.35a.75.75,0,0,1-.26.59,1,1,0,0,1-.64.17,1.94,1.94,0,0,1-.58-.06,2.29,2.29,0,0,0-.84-.17,1.11,1.11,0,0,0-.58.11.9.9,0,0,0-.45.35c-.06.06-.13.18-.06.24s.13.17.19.17a11.34,11.34,0,0,1,4.38,2c.45.35.85.7,1.1.94a4.36,4.36,0,0,0-.7.23,1.35,1.35,0,0,0-.46.41,1.77,1.77,0,0,0-.13.47,1.87,1.87,0,0,0,.19.81,2.4,2.4,0,0,1,.26.18.53.53,0,0,0,.25-.12,2,2,0,0,1,.34-.24.75.75,0,0,1,.38-.17,2.41,2.41,0,0,1,.71-.07,5.62,5.62,0,0,1,2.38.53,5.24,5.24,0,0,1,2,1.81,2.61,2.61,0,0,1,.39.76.43.43,0,0,1,.14.24v0c.05.06.11.18.18.18h.13a.25.25,0,0,0,.19-.06c.06-.06.71-.69.91-2.79a4.78,4.78,0,0,0,.12-1.3,4.53,4.53,0,0,0-.84-2.85A2,2,0,0,0,179.61,63.28ZM128.81,38.5a13.06,13.06,0,0,1,2,2.68,11.78,11.78,0,0,1,1.87,6.07v.81c-.07.18.06.3.26.3a.37.37,0,0,0,.32-.18,12.1,12.1,0,0,0,.19-2.16,10.86,10.86,0,0,0-.77-4,8.67,8.67,0,0,0-3.48-4c-.13-.05-.32-.05-.39.06A.21.21,0,0,0,128.81,38.5Zm31.27,29.16c.13.06.25.17.38.23s.07.06.13.12a.56.56,0,0,0,.26.12,1,1,0,0,0,.25-.18,1.79,1.79,0,0,0,.2-.81.72.72,0,0,0-.13-.47,1.23,1.23,0,0,0-.39-.41c-.32-.11-.57-.18-.77-.23A16.59,16.59,0,0,1,161.36,65a12,12,0,0,1,4.13-1.92c.13,0,.19-.06.19-.17s.07-.18-.06-.24a.9.9,0,0,0-.45-.35,1,1,0,0,0-.52-.11,2.37,2.37,0,0,0-.9.17,1.88,1.88,0,0,1-.58.06,1.12,1.12,0,0,1-.65-.17.78.78,0,0,1-.25-.59c0-.23.06-.29.19-.35a1,1,0,0,1,.45-.11.31.31,0,0,1,.2.05h.06c.13.06.2.12.33.06s.19-.06.19-.17a2.93,2.93,0,0,0,.12-.71.77.77,0,0,0-.19-.63,1.63,1.63,0,0,0-.58-.59,1.73,1.73,0,0,0-.77-.12,3.07,3.07,0,0,0-1.62.47,2,2,0,0,0-.77,1.58,1.65,1.65,0,0,0,.13.75,1.92,1.92,0,0,0,.77,1.06,1.54,1.54,0,0,0,.91.29h.12a2.27,2.27,0,0,1-.31.23,1.4,1.4,0,0,1-.72.17,2.2,2.2,0,0,1-.57-.05l-.07-.06c-.26,0-.45-.06-.58-.06s-.07,0-.19.06a.2.2,0,0,0-.13.06.18.18,0,0,0-.07.17.24.24,0,0,0,.07.18.13.13,0,0,0,.13.11c0,.06.06.06.06.12a.41.41,0,0,1-.06.23.79.79,0,0,1-.26.52.78.78,0,0,1-.58.3,2,2,0,0,0-.26,0,1.44,1.44,0,0,1-1-1.41,1.73,1.73,0,0,1,.33-1c.32-.35.58-.58.78-.82.06-.06.12-.17.19-.23a.61.61,0,0,0,.13-.35.46.46,0,0,0-.07-.29l-.19-.17a7.55,7.55,0,0,0-.84-.7,3.06,3.06,0,0,0-1.22-.48,1,1,0,0,0-.84.42,1.15,1.15,0,0,0-.45.87.93.93,0,0,0,.32.7,1.29,1.29,0,0,0,.84.23h.26a1.91,1.91,0,0,1,.51-.06h.19v.06a4.68,4.68,0,0,0-.64.7,2.58,2.58,0,0,0-.32,1.23,2.32,2.32,0,0,0,.19.87,4.86,4.86,0,0,1,.58,1.76.92.92,0,0,1-.25.7,1.2,1.2,0,0,1-.72.39,1.44,1.44,0,0,1-.51.07,1.3,1.3,0,0,1-1-.46,1.8,1.8,0,0,1-.39-1.23,3.2,3.2,0,0,1,.13-.75A5.31,5.31,0,0,1,154.6,64a1,1,0,0,0,.13-.29c.06,0,.06,0,.06-.06a.32.32,0,0,0,0-.35.45.45,0,0,0-.39-.06,2.57,2.57,0,0,0-.83.82,4.6,4.6,0,0,0-.84,2.85,8.18,8.18,0,0,0,.13,1.3c.19,2.1.83,2.73.9,2.79s.13.06.26.06h.06c.06,0,.13-.12.19-.18a6.1,6.1,0,0,1,1.1-1.75,5,5,0,0,1,3.8-1.64,2.45,2.45,0,0,1,.71.07A.26.26,0,0,1,160.08,67.66Zm-11.28-1a.33.33,0,0,0-.39.11,20.36,20.36,0,0,1-2.65,3.15,8.6,8.6,0,0,1-3.61,2.16.14.14,0,0,0-.12.12H142v.23c.07.06.07.12.13.12h.06v.06h.2c0-.06.07-.06.07-.06s.44-.12.77-.18a4.48,4.48,0,0,1,1.09-.17,2.27,2.27,0,0,1,.39.06h.06v0a.22.22,0,0,1-.06.18,1.84,1.84,0,0,1-.65.87,14.85,14.85,0,0,1-1.54,1.17,2,2,0,0,0-.58.35.63.63,0,0,1-.2,0l-.06.06a.28.28,0,0,0-.13.36.3.3,0,0,0,.26.17h.06A6.52,6.52,0,0,0,145,73.78a17.58,17.58,0,0,0,3-4.31,21.87,21.87,0,0,0,1-2.45C149,66.84,148.92,66.72,148.8,66.67ZM139.06,65h0a4.84,4.84,0,0,1-1.87-.46A6.47,6.47,0,0,1,134,61.65a.33.33,0,0,0-.38-.12.31.31,0,0,0-.2.29c0,.06.32.94.78,2a14.73,14.73,0,0,0,.83,1.69A4.92,4.92,0,0,0,136,67c.06.13.13.13.19.13h.19c1.23-.59,2.84-1.64,2.91-1.64a.23.23,0,0,0,.06-.28C139.32,65,139.19,65,139.06,65ZM123.59,60h-.32l-.06.06-.14.12a12.23,12.23,0,0,1-1,1.1c-1.54,1.52-5,4-11,4.32a.28.28,0,0,0-.27.29.27.27,0,0,0,.27.24h.13a21.89,21.89,0,0,0,5.8-.76,12.38,12.38,0,0,0,3.86-1.7,7.2,7.2,0,0,0,2.77-3.27l.07-.06v-.22ZM135.13,54a1.52,1.52,0,0,1,.25,0h.14c.13,0,.25,0,.32-.11a.27.27,0,0,0,0-.3,4,4,0,0,0-1.93-1.16,8.35,8.35,0,0,0-2.45-.29,22.92,22.92,0,0,0-5.74.87.21.21,0,0,0-.2.23.29.29,0,0,0,.14.24,7.69,7.69,0,0,0,2.69.64,3.52,3.52,0,0,0,1.55-.35,4.58,4.58,0,0,1,1.75-.29,17.86,17.86,0,0,1,2.58.29A6.11,6.11,0,0,1,135.13,54Z" style="fill: #cb9833"/>
    <path d="M106.9,48.44V48a12.75,12.75,0,0,0-.2-1.81l0-.2-.06-.07-.22.15a5.45,5.45,0,0,0-1.09.67,6.41,6.41,0,0,0-.65.6.93.93,0,0,0-.26.66v.24a2.65,2.65,0,0,0,.26,1,4,4,0,0,0,.39.84l.06.19.2-.13a1.9,1.9,0,0,0,.89-.42,1.87,1.87,0,0,0,.72-1.32m8.26,7.66c0-.1-.18-.41-.21-.49l-.13-.24-.19.12c-.54.37-1.93.65-1.93,1.81a2.49,2.49,0,0,0,.39,1c.53-.26,1.15-.45,1.35-.59,0,0-.2-.29-.2-.35-.12-.42.24-.15,0-.28,0-.06-.07-.06-.13-.06l.06-.06C114.64,56.6,114.62,56.32,115.16,56.1Zm-2.71-3.55a4.76,4.76,0,0,1-.45-.24c-2.31.53-2.53,2.17-1.24,3.91l.06.12.2-.06C113,55.76,112.83,54.15,112.45,52.55Zm-8.65-7.49c0-.19.07-.36.07-.55a8.88,8.88,0,0,0-.13-1.51l-.07-.35-.33.23a6.94,6.94,0,0,0-.82.72,2.39,2.39,0,0,0-.59.61,1.75,1.75,0,0,0-.26.66v.24a5.69,5.69,0,0,0,.52,1.7l.13.17.2-.12a1.6,1.6,0,0,0,.7-.48A1.81,1.81,0,0,0,103.8,45.06Zm-5-5.86a1.33,1.33,0,0,0,.2-.78v-.06a5.75,5.75,0,0,0-.45-2.23l-.07-.24L98.2,36a6,6,0,0,0-1.23.72,4.4,4.4,0,0,0-.84.67,1.06,1.06,0,0,0-.26.36.76.76,0,0,0-.06.36,2.65,2.65,0,0,0,.38,1.2c.26.38.45.67.65.91l.13.12.12-.05a4.59,4.59,0,0,0,1.11-.56A2.33,2.33,0,0,0,98.77,39.2Zm3,2.84v-.18a8,8,0,0,0-.26-2.12l-.06-.29-.26.12a10.93,10.93,0,0,0-1.09.66,7.65,7.65,0,0,0-.72.61.93.93,0,0,0-.25.66,2.79,2.79,0,0,0,.33,1.27,4.7,4.7,0,0,0,.45.9l.06.11.19-.05a2.68,2.68,0,0,0,1-.43,1.4,1.4,0,0,0,.45-.53A1.26,1.26,0,0,0,101.8,42Zm-2.07,8-.32.06.2.3a6.27,6.27,0,0,0,.78.91,3.2,3.2,0,0,0,.64.6,3.74,3.74,0,0,0,.45.25h.32a3.46,3.46,0,0,0,1.29-.31,5.88,5.88,0,0,1,.84-.42l.13-.12-.07-.18a2.67,2.67,0,0,0-.51-.79,2,2,0,0,0-1.42-.6A10.87,10.87,0,0,0,99.73,50.06Zm5.48,6.46c1.24,2.19,2.35,3.31,4.58,1.2l.13-.12v-.12a5,5,0,0,0-.51-1C108.54,55.31,106.24,56,105.21,56.52Zm-2.64-3.45-.32.07.2.24a3.6,3.6,0,0,0,.77,1,2.33,2.33,0,0,0,.65.6,1.32,1.32,0,0,0,.64.25h.06a3.1,3.1,0,0,0,1.29-.36,3.7,3.7,0,0,0,.9-.49l.14,0-.07-.19a2.21,2.21,0,0,0-.51-.85,1.86,1.86,0,0,0-1.42-.6A9.14,9.14,0,0,0,102.57,53.07Zm10.19,5.5c-1.75-1.68-3.55-3.51-5.16-5.26l.2-.05a2.24,2.24,0,0,0,1-.3,1.77,1.77,0,0,0,.84-1.21,18.55,18.55,0,0,0-.19-2.41,4.69,4.69,0,0,0-1.29.48,2.78,2.78,0,0,0-.72.49,2,2,0,0,0-.38.6v.54a5.44,5.44,0,0,0,.52,1.69v.12c-2.13-2.35-4.2-4.82-6.38-7.54-.9-1.14-1.67-2.12-2.39-3-.51-.61-1.42-1.7-2.19-2.66a13.45,13.45,0,0,1-1.3-2.31,4.87,4.87,0,0,0-1.36-3.55,9.89,9.89,0,0,0-2.12-1.51l-.65-.42.07.48V33c.13.79.51,3.32,1.41,4.16a4.15,4.15,0,0,0,2.2.91h.06l5.56,8.09a148.39,148.39,0,0,0,11.61,13,3.56,3.56,0,0,1,.56-.42ZM108.44,60l.13.24a6.18,6.18,0,0,0,2.17,2.17c.07-.28.32-.71.34-.89h.07a2.31,2.31,0,0,0,.44-1.21,2.76,2.76,0,0,1,.41-.59A6.35,6.35,0,0,0,108.44,60ZM91.1,39.45l-.25.06.12.23c1,1.82.87,2,2.71,2h.06A2.52,2.52,0,0,0,95,41.31a10.27,10.27,0,0,0,.91-.6l.12-.12-.07-.12a2.29,2.29,0,0,0-2.5-1.5A7,7,0,0,0,91.1,39.45Zm6.06,7.23-.39.07L97,47a5.26,5.26,0,0,0,.77.85,2.86,2.86,0,0,0,.64.49,1.87,1.87,0,0,0,.71.24,4.74,4.74,0,0,0,1.93-.55l.26-.06-.13-.24a4.39,4.39,0,0,0-.58-.66,2,2,0,0,0-1.35-.55H99A12.5,12.5,0,0,0,97.16,46.68Zm-2.83-3.31-.27.12.13.24c.14.24.45.6.78,1a2.27,2.27,0,0,0,.64.6,1.5,1.5,0,0,0,.71.3,4.64,4.64,0,0,0,1.35-.43c.39-.17.65-.36.9-.47l.14-.13-.07-.18a2.75,2.75,0,0,0-.51-.85,1.87,1.87,0,0,0-1.41-.6A19.09,19.09,0,0,0,94.33,43.37Z" style="fill: #cb9833"/>
    <path d="M167,97l-.8-.75c-2.06-1.75-3.19-3.46-3.46-5.19a8.41,8.41,0,0,1-.75.55l-.69.59-.56-.52h-.28l-.09-.3-.21-.2a11.5,11.5,0,0,1-1.14-1,12.68,12.68,0,0,1-2.39-2.71,4.14,4.14,0,0,1-.5-1.93,2.83,2.83,0,0,1,0-.41c-.81.17-1.64.29-1.64.29l-.84.12-.26-.62a.36.36,0,0,1-.12-.19,1.35,1.35,0,0,1-.15-.26,8,8,0,0,1-.67-1.28,9,9,0,0,1-.74-1.87l-.41.29-.25.26h-.39a7.43,7.43,0,0,1-2.08-.41,3.14,3.14,0,0,1-.51.71,4.39,4.39,0,0,1-2.25,1.31,8.93,8.93,0,0,1-1.72.39l-.27,0H143l-.35-.5a7,7,0,0,1-3.21,1.47L139,85l-.7.22-.46-.64a3.83,3.83,0,0,1-.92-2.63,6,6,0,0,1,.15-1.34h-1l-.25-.56-.16-.15v-.11l0-.1a.34.34,0,0,0-.06-.15,3.11,3.11,0,0,1-.19-.51,4.5,4.5,0,0,1-.47-2v-.48a3.13,3.13,0,0,1,.09-.92v0l-.65.42a33.73,33.73,0,0,1-3.54,2.11,17.58,17.58,0,0,1-3.48,1.07l-2.27.51,1-2.23s0-.07.05-.13,0-.37,0-.63a2.77,2.77,0,0,0,0-.65,10.78,10.78,0,0,0-1-2.46,4.08,4.08,0,0,1-.42.19l-1,.5-.45-1.07a4.15,4.15,0,0,1-.34-1.55,8.06,8.06,0,0,1-3.38.88l-1.8.8.24-.8h0l.15-.67c-.33.1-.66.21-1,.33a17.44,17.44,0,0,1-1.68.52H115l-.12-.11-.13-.07h-.22l-.09-.16a1.69,1.69,0,0,1-.36-1,5.87,5.87,0,0,1-3.14-1.85,1.84,1.84,0,0,0-1.73-1,5.34,5.34,0,0,0-.72-.12,3.87,3.87,0,0,1-.43-.07,1,1,0,0,1-.69-.31,1.06,1.06,0,0,1-.48-1l.06-.47a4.54,4.54,0,0,1,.32-.51l.12-.23a9.32,9.32,0,0,1,1.53-1.35l.54-.39a7.78,7.78,0,0,0,.5-.7,4.27,4.27,0,0,0,.76-2l0-.42H111a1.4,1.4,0,0,0,.23-.72l0-.13a2.5,2.5,0,0,1,.55-1,4.28,4.28,0,0,1,1.21-1c.41-.23.77-.4,1.07-.54l.22-.11-.16-.07-1.06,0,.86-.8A8.15,8.15,0,0,1,119.26,55a3.23,3.23,0,0,1,.5.05h.33a2.1,2.1,0,0,0,1.19-.53,1.36,1.36,0,0,0,.3-.74.49.49,0,0,0,0-.14l0-.13c0-.07-.45-.09-.83,0l-.15.07c-.18.16-.35.31-.49.45-.42.39-.6.55-.86.55-1.72,0-5.64-.6-7.37-2.05a2.62,2.62,0,0,1-.6-2.45,2,2,0,0,0,0-.77,1.48,1.48,0,0,1-1,0c-1.83-.61-4.35-4-5.15-6l-.22-.53.55-.12a27,27,0,0,0,3-1c4.36-1.67,10.9-4.17,12.93.18a.67.67,0,0,0,.47-.16.73.73,0,0,0,.26-.39l0-.12.09-.09s0-.13.13-.24l.23-.23.29.13.4.15a7.7,7.7,0,0,1,1.47.6h0a.7.7,0,0,1,.54.32l.17.17a6.73,6.73,0,0,1,.62.72c.39.56.85,1.22,1.23,1.83a4.59,4.59,0,0,0,.53.78l.32.31v0l.23,0a.8.8,0,0,0,0-.27,4.31,4.31,0,0,0-.41-1.68,3.78,3.78,0,0,0-.81-1.14,5.9,5.9,0,0,0-.59-.49l-.52-.44a2.65,2.65,0,0,1-.44-.56,1,1,0,0,1-.22-.64,4.36,4.36,0,0,1,.14-1l0-.15.12-.09s0-.13.11-.24l.14-.13.25-.06a.76.76,0,0,1,.27,0,16.38,16.38,0,0,0,.4-3.75c0-.28,0-.54,0-.78s0-.35,0-.52l-.82-.78,1.35.09A17.61,17.61,0,0,1,134,35l.1.05v-.85l.69.58a1.79,1.79,0,0,1,.69.41,2.65,2.65,0,0,1,.64.68l.09.14a1.25,1.25,0,0,0,.15.19c.07.06.08.09.14.11a6.23,6.23,0,0,1,2,2.5,4.53,4.53,0,0,1,.41,1.91,2.76,2.76,0,0,1,0,.44v.06a1.26,1.26,0,0,1,.46-.33l.2,0h.66v.48a1.3,1.3,0,0,0,0,.26l.17.35a1.25,1.25,0,0,1,.12.17h0l.16.37a4.67,4.67,0,0,0,.16.51l.15.5a9,9,0,0,1,.15,1.52,6,6,0,0,1-.22,1.72,3.24,3.24,0,0,1-.49.9A1.37,1.37,0,0,1,140,48a8.84,8.84,0,0,0-1.88,1.4v.28l-.27,0a3,3,0,0,1-.28.37l-.11.17a2.77,2.77,0,0,0-.49,1.59l.11.5a.83.83,0,0,1,.33.05h.3a21.45,21.45,0,0,1,3.63.3,8.4,8.4,0,0,1,2.31.65,2.27,2.27,0,0,1,1,.93l.06.18a1.31,1.31,0,0,1,.12.54,1.67,1.67,0,0,1,0,.41,1.57,1.57,0,0,0,0,.32l0,.17s0,.07.05.14l0,.11c.06.2.13.4.19.66s.28.59.42.83c1.11-1.17,1.58-.8,2.27.53h0c.29-.37.72-.64,1.15-.37.8.81.41,2.64,3.26,1.35q9.63-3.36,13.62-.81A4,4,0,0,1,167,59.49h0c2.11-4.14,11.74-1.4,14.74-.35l.28.09.53.09.19,0a1.7,1.7,0,0,0,2-.91c.23-.51.17-1.17,1-.65a.76.76,0,0,0,.2.16l.26.22h0c.18-.42.67-1.22,1.18-1.22l.21,0a1.63,1.63,0,0,1,.55.32l.05,0h.3v.23c.84-1.4.43-1.86.83-3.1l.06-.14a1.41,1.41,0,0,1,.35-.49c.1-.09.24-.19.42-.32l.19-.14a8.26,8.26,0,0,1,2.36-.69,22,22,0,0,1,3.64-.3h.32a.79.79,0,0,1,.3-.05l0,0,0,0v-.38a2.56,2.56,0,0,0-.48-1.53A6.62,6.62,0,0,0,193.92,48a2.66,2.66,0,0,1-.84-1.12,6.1,6.1,0,0,1-.23-1.78,10.66,10.66,0,0,1,.13-1.46,6.85,6.85,0,0,1,.43-1.18,1.11,1.11,0,0,1,.23-.46l.12-.15,0-.17a.92.92,0,0,0,0-.19V41l.89-.12.09,0a1.38,1.38,0,0,1,.31.2,2,2,0,0,1,0-.23,4.71,4.71,0,0,1,.43-2,4.58,4.58,0,0,1,1-1.49,5,5,0,0,1,1.07-1l.06-.07a.75.75,0,0,0,.12-.14c.06-.07.12-.15.2-.23l.09-.15.16-.25.14-.22h.12a.85.85,0,0,1,.17-.14,1.81,1.81,0,0,1,.64-.37l.63-.22v.52h0l.16-.08a17.55,17.55,0,0,1,6.62-2.17l.62-.07-.11.63a9,9,0,0,0-.12,1.37,21.11,21.11,0,0,0,.42,3.8h0a.93.93,0,0,1,.27,0h.48l.12.61a4.06,4.06,0,0,1,.14.92,1.84,1.84,0,0,1,0,.45v.22l-.17.11a.23.23,0,0,0-.08.11l-.14.25H208l-.18.19c-.13.11-.27.23-.42.34s-.45.38-.63.57l-.15.16a3.7,3.7,0,0,0-.66.94,6.12,6.12,0,0,0-.4,1.67,1.55,1.55,0,0,0,.07.35.21.21,0,0,1,0,.06l.12.06.1,0,.24-.28c.17-.22.38-.48.6-.79.38-.59.76-1.2,1.14-1.75.25-.3.43-.51.56-.69h0l.14-.22a2,2,0,0,1,.52-.39,6,6,0,0,1,1.6-.67,1.3,1.3,0,0,1,.41-.15l.75-.24,0,.75a1.07,1.07,0,0,0,.26.41.61.61,0,0,0,.43.17l.12,0c2-4.34,8.56-1.82,12.94-.14a24,24,0,0,0,2.94,1l.55.12-.22.54c-.79,2-3.31,5.36-5.15,6a1.48,1.48,0,0,1-1,0,3.26,3.26,0,0,0,0,.75,2.48,2.48,0,0,1-.61,2.48,9.71,9.71,0,0,1-4.61,1.72,10.57,10.57,0,0,1-2.81.38c-.27,0-.45-.16-.88-.57l-.44-.39h0l-.16-.1a1.79,1.79,0,0,0-.77-.05l-.06.13a.49.49,0,0,0,0,.13c0,.67.77,1.29,1.65,1.33l.28,0c.14,0,.3,0,.45,0,1.06,0,3.68.17,5.3,1.7l.87.84-1.2.09h0l.26.11c.32.15.73.33,1.15.57.71.49,1.55,1.2,1.64,1.93a1.71,1.71,0,0,0,.24.79h.15l.12.42A4.09,4.09,0,0,0,224,63.4l.12.16c.42.54.5.65.77.82l.62.52a4.82,4.82,0,0,1,1.53,1.68l0,.2a.59.59,0,0,1,.07.3,1.19,1.19,0,0,1-.41.9,1,1,0,0,1-.29.21,1.21,1.21,0,0,1-.59.21,3.87,3.87,0,0,1-.43.07,5.27,5.27,0,0,0-.68.11c-.89.12-1,.22-1.25.42a3.41,3.41,0,0,0-.46.5c-.09.09-.12.11-.15.17a5.94,5.94,0,0,1-3,1.72,1.4,1.4,0,0,1-.34.87l-.13.19-.32.3h-.51a11.84,11.84,0,0,1-1.74-.51l-.53-.17-.37-.13.19.57h0l.31.92-2-.86a7.46,7.46,0,0,1-3.19-.81,4.3,4.3,0,0,1-.42,1.44l-.26.65v.51l-1.31-.57-.37-.17a11.48,11.48,0,0,0-1,2.38,3.71,3.71,0,0,0,0,.67,3,3,0,0,0,.11.72l.07.37.95,2h0l-1-.22-1.33-.28h-.21l-.1,0a4.73,4.73,0,0,0-.58-.15,20.65,20.65,0,0,1-2.44-.8,34.61,34.61,0,0,1-3.45-2.06c-.27-.17-.55-.36-.81-.51a3,3,0,0,1,.08.86v.41a5.71,5.71,0,0,1-.41,2,4.27,4.27,0,0,1-.2.42c0,.06-.07.12-.09.17v0l-.57,1h-.91a5.28,5.28,0,0,1,.15,1.22,4,4,0,0,1-.95,2.74v0l-.37.44-.2.17-.63-.2-.33-.08a6.68,6.68,0,0,1-3.24-1.49l-.16.45H191l-.25.06-.9-.06h-.12l-.28,0a7.33,7.33,0,0,1-1.35-.29,4.76,4.76,0,0,1-2.73-2.06,7.56,7.56,0,0,1-2.09.4h-.34l-.36-.18-.09-.16-.26-.22a8.87,8.87,0,0,1-.73,1.87,8.17,8.17,0,0,1-.48,1l-.25.41,0,.05v0l-.55.82h-.44l-.36-.07s-.72-.11-1.53-.26c0,.1,0,.22,0,.33a3.87,3.87,0,0,1-.5,1.85,6.42,6.42,0,0,1-1,1.37l-.41.46a29.46,29.46,0,0,1-2.46,2.22l-.86.75-1-.73c-.16-.12-.3-.24-.44-.36a7.29,7.29,0,0,1-1.68,3.37l-.12.12a9.68,9.68,0,0,1-1.74,1.7ZM163.66,89v1.21c0,1.67,1.08,3.44,3.2,5.24l.11.11.07-.06a11.13,11.13,0,0,0,1.69-1.67l.12-.12a5.73,5.73,0,0,0,1.5-3.56V89.08l.79.71a5.75,5.75,0,0,0,.63.48,4.82,4.82,0,0,0,.38.31l.07.06.07,0h.34v.15l.24-.15s0,0,0,0a26.24,26.24,0,0,0,2.33-2.09v-.29l.29,0,.12-.14a5.89,5.89,0,0,0,.84-1.18,3,3,0,0,0,.4-1.42,3.57,3.57,0,0,0-.11-.78l-.16-.61h.62a1.1,1.1,0,0,1,.28,0l.22,0c1,.19,1.79.31,1.79.31l.12,0,.24-.37A.64.64,0,0,1,180,84l.21-.34a6.61,6.61,0,0,0,.45-.92,9.73,9.73,0,0,0,.87-2.5l.19-1,.63.74a5.23,5.23,0,0,0,.81.76l.1.1a6,6,0,0,0,2.14-.5l.46-.25.19.5a3.57,3.57,0,0,0,2.39,2,6.7,6.7,0,0,0,1.17.26l.21,0a1.11,1.11,0,0,1,.42,0l.32,0,.06-.09a.81.81,0,0,1,.13-.28h0a.6.6,0,0,1,.19-.31l.38-.36.32.41A5.35,5.35,0,0,0,194.78,84a2.38,2.38,0,0,1,.38.09l.08,0,.07-.09a3.11,3.11,0,0,0,.78-2.18,5,5,0,0,0-.29-1.6l-.25-.74.76.1a4,4,0,0,0,.75.06h0l.23,0,.12-.22s0,0,0,0v0a2.84,2.84,0,0,1,.17-.36l.17-.33a5.15,5.15,0,0,0,.33-1.69V76.5a1.6,1.6,0,0,0-.08-.69l0-.22a1.87,1.87,0,0,0-.12-.58l-.22-.8h.62c.25,0,.48.12,2,1.13a35,35,0,0,0,3.31,2,22.43,22.43,0,0,0,2.28.76,3.91,3.91,0,0,1,.68.17h.09l.5.11-1-2,.82.79a2.93,2.93,0,0,1,0-.53,4.12,4.12,0,0,1,.07-.91,12.49,12.49,0,0,1,1.09-2.71l.41-.84.45.33a3.26,3.26,0,0,0,.68.37l.23.11.09-.22a3.3,3.3,0,0,0,.34-1.44s0-.07,0-.14a1.44,1.44,0,0,1-.05-.34V70l.75.52a6.45,6.45,0,0,0,3.54,1.12l.18,0,.17.07-.06-.16h.07l-.3-.93.79.14a9.73,9.73,0,0,1,1.32.39,3.5,3.5,0,0,0,.52.17,15.73,15.73,0,0,0,1.53.48l.07-.07.09-.12a.5.5,0,0,0,.11-.36V70.6l.39-.07a5.2,5.2,0,0,0,2.78-1.42.77.77,0,0,1,.22-.27,4,4,0,0,1,.52-.55,2.53,2.53,0,0,1,1.71-.66,5.4,5.4,0,0,1,.74-.12l.35-.05.12,0a.31.31,0,0,0,.13,0l.18-.13c.06-.07.1-.12.1-.18a.43.43,0,0,1-.05-.17,5,5,0,0,0-1.23-1.26l-.59-.49a3.55,3.55,0,0,1-1-1l-.12-.16a4.93,4.93,0,0,1-.89-2.18l0,0a2.76,2.76,0,0,1-.52-1.46,3.22,3.22,0,0,0-1.2-1.17c-.36-.21-.73-.37-1-.51a6.33,6.33,0,0,1-.69-.34,1,1,0,0,1-.32-.7v-.13l.05-.11.07-.11v-.1l.14-.14s0,0,0,0l-.11-.11a8.2,8.2,0,0,0-4-.92l-.33,0-.36,0a2.59,2.59,0,0,1-2.64-2.29,1.13,1.13,0,0,1,.09-.5.54.54,0,0,1,.11-.24l.14-.21a1.35,1.35,0,0,1,.9-.31,3.66,3.66,0,0,1,.87.13l.32.16c.23.19.43.38.61.54a4.12,4.12,0,0,0,.35.31,9.55,9.55,0,0,0,2.46-.33,9.3,9.3,0,0,0,4.23-1.53c.43-.36.4-.87.29-1.62a2.15,2.15,0,0,1,.14-1.49l.27-.53.75.2a.56.56,0,0,0,.46,0c1.28-.43,3.4-3,4.35-4.92-.69-.22-1.55-.55-2.51-.92-4.12-1.58-10.32-4-11.83-.13l-.12.3H213a2.56,2.56,0,0,1-.44.06,1.54,1.54,0,0,1-1.08-.43,2.15,2.15,0,0,1-.42-.58l-.1,0a4.63,4.63,0,0,0-1.44.6l-.14.07,0,0v0l-.16.21-.58.72c-.36.51-.74,1.1-1.11,1.7-.25.35-.47.63-.66.86l-.22.3v.28h-.48a.52.52,0,0,1-.38.11h-.26l-.46-.26-.13-.16-.11-.1-.06-.16a2.58,2.58,0,0,1-.15-.76,6.18,6.18,0,0,1,.47-2,4.52,4.52,0,0,1,.86-1.26l.15-.14a5.48,5.48,0,0,1,.71-.65c.14-.11.26-.22.37-.32s.14-.13.16-.17l.13-.26h.11a.37.37,0,0,0,0-.17,2.43,2.43,0,0,0-.1-.58v0h-.06l-.57-.12-.27-.56a22.46,22.46,0,0,1-.46-4.08c0-.33,0-.64.05-.9a17.3,17.3,0,0,0-5.67,2l-.21.11-1.35.89V36.2l-.11.12c-.06.08-.1.16-.17.26l-.18.21-.06.07v.29l-.31,0-.08,0a5,5,0,0,0-.87.84,3.82,3.82,0,0,0-.82,1.21A4,4,0,0,0,196,40.9a1.41,1.41,0,0,0,0,.18,2.09,2.09,0,0,1,0,.35v2l-1.41-1.33a.91.91,0,0,1-.27.52.61.61,0,0,0-.11.23,7.37,7.37,0,0,0-.38,1,8.7,8.7,0,0,0-.11,1.25,5.59,5.59,0,0,0,.16,1.43,1.69,1.69,0,0,0,.46.66,7.34,7.34,0,0,1,2.93,2.68,3.47,3.47,0,0,1,.64,2v.3a1.06,1.06,0,0,1-.09.47.79.79,0,0,1-.17.3l-.28.26h-.1a.69.69,0,0,1-.28.06h0l-.06.06h-.62a20.76,20.76,0,0,0-3.48.29c-.67.13-2.24.37-2.64,1.14-.48,1.4-.17,2.12-1.11,3.6L187.57,61V58.07l0,0-.09-.06c-.47.7-.82,1.87-1.93.87V59c0,2.33-3.78,1.14-4.79.82-5.7-1.89-9.77-2.11-12.08-.65A7.62,7.62,0,0,0,166.94,62c-.41-1.13-.54-2.16-1.55-2.88-2.3-1.46-6.55-1.22-12.47.8v0l-.37.14c-1.06.28-4.05,1.26-4.08-1.15-.8.82-1.48-.41-1.85-1l-.09.05a10.92,10.92,0,0,0-.1,2.78l-1.56-2.45a8.73,8.73,0,0,1-.59-1.15l-.06-.12a5.62,5.62,0,0,0-.16-.58,1.46,1.46,0,0,1-.16-.58,2,2,0,0,1,0-.49,1.56,1.56,0,0,0,0-.31,1.9,1.9,0,0,0-.06-.31l-.05-.13a1.4,1.4,0,0,0-.54-.45,7.23,7.23,0,0,0-2-.56,20.07,20.07,0,0,0-3.47-.29l-.58,0s0,0-.13,0h-.11l-.27-.11a1.05,1.05,0,0,1-.48-.51l0-.23v-.3a.53.53,0,0,1-.07-.3,3.76,3.76,0,0,1,.65-2.13l.15-.2c.1-.14.23-.32.36-.52l.2-.22a10,10,0,0,1,2.19-1.63l.15-.1a3.5,3.5,0,0,0,.33-.6,5,5,0,0,0,.17-1.42,8.48,8.48,0,0,0-.12-1.31l-.14-.4-.07-.22h-.12l-.06-.48s0,0-.08-.08l-.09-.12a.82.82,0,0,1-.17-.32l-1.44,1.26v-2a1.29,1.29,0,0,1,0-.33,2.3,2.3,0,0,0,0-.28,3.64,3.64,0,0,0-.33-1.53A5.51,5.51,0,0,0,136,37.16a.89.89,0,0,1-.3-.23,1.13,1.13,0,0,1-.27-.34l-.09-.12a2.09,2.09,0,0,0-.23-.29v.31l-.05-.05v.37L133.77,36l-.21-.11a17,17,0,0,0-5.73-2V34c0,.27,0,.55,0,.85a17,17,0,0,1-.46,4.1l-.16.46-.56.14-.15,0-.05.08a3.88,3.88,0,0,0-.08.63l.06.12a1.52,1.52,0,0,0,.3.37l.45.39a6.43,6.43,0,0,1,.7.59,4.6,4.6,0,0,1,1,1.43,5.13,5.13,0,0,1,.48,2.05,1.48,1.48,0,0,1-.16.79.46.46,0,0,1-.1.18v.12l-.85.29a1,1,0,0,1-.44-.11h-.07l-.64-.65a6.09,6.09,0,0,1-.61-.88c-.35-.56-.79-1.22-1.18-1.75a4.25,4.25,0,0,0-.51-.59l-.17-.19-.17-.05a7.48,7.48,0,0,0-1.42-.62l-.14,0a1.93,1.93,0,0,1-.43.59,1.56,1.56,0,0,1-1.09.43,1.4,1.4,0,0,1-.59-.1l-.16-.09-.07-.18c-1.54-3.81-7.72-1.45-11.81.12-1,.38-1.89.72-2.6.93,1,1.91,3.07,4.51,4.35,4.92a.53.53,0,0,0,.46,0l.15-.06.63-.14.28.67a2,2,0,0,1,.12,1.36c-.09.74-.12,1.26.28,1.6,1.4,1.18,4.93,1.78,6.62,1.81a2.72,2.72,0,0,0,.34-.31l.62-.54.32-.16a3.66,3.66,0,0,1,.87-.13,1.14,1.14,0,0,1,1.21.81,1.08,1.08,0,0,1,.1.51,2.34,2.34,0,0,1-.56,1.41,3.17,3.17,0,0,1-1.85.82H120l-.32,0a1.9,1.9,0,0,0-.37,0A7.84,7.84,0,0,0,115.11,57a1.13,1.13,0,0,1,.28.49l0,.15a.77.77,0,0,1-.07.29v.26l-.2.09a6.61,6.61,0,0,1-.68.35c-.28.14-.63.3-1,.52a3.2,3.2,0,0,0-1,.74,1.47,1.47,0,0,0-.33.53,3,3,0,0,1-.52,1.4l0,0a5,5,0,0,1-.89,2.18,5.25,5.25,0,0,1-.75,1l-.14.13h-.09l-.26.2a8.76,8.76,0,0,0-1.29,1.1l-.15.26a3.28,3.28,0,0,0-.2.31v.12c0,.12,0,.16.1.2a.35.35,0,0,0,.18.1l.12,0,.35.05a5.73,5.73,0,0,1,.78.13,2.59,2.59,0,0,1,2.24,1.24,5.11,5.11,0,0,0,3,1.65l.4.07v.7a.78.78,0,0,0,.07.36l.11.07.16,0c.27-.07.88-.27,1.39-.45a9.76,9.76,0,0,1,1.91-.57l.56-.09,0,.79-.06.21.24-.06A6.64,6.64,0,0,0,123,70.43l.76-.55v1.54a3.26,3.26,0,0,0,.27,1.43l.07.16.19-.09a2.38,2.38,0,0,0,.6-.32l.54-.35.24.46A13,13,0,0,1,127,75.86a3.74,3.74,0,0,1,.07.87,3.31,3.31,0,0,1-.09,1l-.06.12a1,1,0,0,1,0,.12l-.13.36.39-.09a16.66,16.66,0,0,0,3.29-1,32.07,32.07,0,0,0,3.4-2c1.41-.92,1.57-1,1.8-1h.19l.37.35-.06.38a3.06,3.06,0,0,0-.21.89,2.48,2.48,0,0,0-.07.73V77a3.69,3.69,0,0,0,.39,1.59l0,.12a1,1,0,0,0,.13.34l.07.18a.4.4,0,0,1,.09.2l.19.16h.14a3.29,3.29,0,0,0,.74-.06l.78-.1-.25.75a4.78,4.78,0,0,0-.3,1.71,3,3,0,0,0,.71,2l.08.11.06,0a4,4,0,0,1,.44-.11,5.54,5.54,0,0,0,3.09-1.54l1-1.38v1.5s0,0,0,.07a.84.84,0,0,1,.15.3l0,0h.33l.23,0a8.22,8.22,0,0,0,1.58-.35,3.52,3.52,0,0,0,1.77-1l.1-.11a2.85,2.85,0,0,0,.51-.78l.23-.42.44.16a5.81,5.81,0,0,0,2.07.5l0,0a4.14,4.14,0,0,0,.93-.81l.69-.81.14,1.06a8.12,8.12,0,0,0,.84,2.49A7.51,7.51,0,0,0,154,84a2.12,2.12,0,0,0,.12.21l.17.14v.1l0,.06h.11s.8-.12,1.68-.3a1.77,1.77,0,0,0,.59-.11l1-.31-.41,1a2.14,2.14,0,0,0-.16.82A3,3,0,0,0,157.5,87a12.46,12.46,0,0,0,2.19,2.47c.44.41.81.7,1.11.94l.23.2h.28l.06.26.12-.1a14.26,14.26,0,0,0,1.39-1.08Zm-3.23,2.12a.49.49,0,0,0,0,.12Zm46-44.8h0Z" style="fill: #cb9833"/>
    <path d="M154,18.22v-.6h-.2a.4.4,0,0,0-.32.29.33.33,0,0,0,.32.31Zm-1-4.57h3.6v.73h-.9l.07,3c.25.07,1.54-.89,2-2.21.13-.37.39-.84-.26-.91v-.66h3.22v.66c-.51,0-.9.36-1.28,1a7.27,7.27,0,0,1-.77,1,8.58,8.58,0,0,1-2.38,1.92,3.61,3.61,0,0,1,1.15,1c5.21,8.18,14.92,8.66,20.44,4.27.25-.18.39-.06.2.13a12.67,12.67,0,0,1-16.59,1.8,11.09,11.09,0,0,1-3-2.89c-.32-.42-.58-.83-.9-1.33l-1.28-1.85a1.62,1.62,0,0,0-.58-.55v3.61h.89v.66l-3.59.06v-.72h.9V18.82h-.39a.84.84,0,0,1-.89-.84v-.07a.89.89,0,0,1,.89-.89H154l-.07-2.64-.9,0Z" style="fill: #cb9833;fill-rule: evenodd"/>
    <path d="M162.26,17.13h.13a.84.84,0,0,1,.84.78v3.86a.78.78,0,0,1-.84.72h-.13a.78.78,0,0,1-.84-.72V17.91a.84.84,0,0,1,.84-.78m.06-.65c-3.47,0-3.34,6.61,0,6.61S165.79,16.48,162.32,16.48Z" style="fill: #cb9833;fill-rule: evenodd"/>
    <path d="M167.27,17.38h-.06v3.07h.06c1.49,0,1.61-3.07,0-3.07m-2.18.05v-.72h3a2.44,2.44,0,0,1,.58.19,2.55,2.55,0,0,1,.51.36c1.48,1.38.71,3.72-1.74,3.91a2.6,2.6,0,0,0,1.8-.12c.27,1,.71,1.5,1.49,1.38v.66h-2.06a1.54,1.54,0,0,0-1.48-1.38v.72l.58.06v.6H165v-.66h.58v-5Z" style="fill: #cb9833;fill-rule: evenodd"/>
    <path d="M173.32,16.59c-3.41,0-3.29,6.38-.14,6.56l-.83.72c.7.42.83.9.39,1.39,1-.25,1.47-1,1-1.75l-.27-.36a1.92,1.92,0,0,0,.65-.18,1.6,1.6,0,0,0,.89-1.25l-.63-.55c-.14.42-.14,1.26-1,1.26h-.13a.78.78,0,0,1-.83-.71V17.91a.83.83,0,0,1,.83-.78h.13c.71,0,.9.73,1,1.27l.7-.18-.39-1.92-.83.05.13.31a2,2,0,0,0-.64-.07" style="fill: #cb9833;fill-rule: evenodd"/>
    <path d="M177.69,17.56l.44,1.37.4,1.46h-1.68l.38-1.46Zm-1.22-.85h3.33v.73h-.51l1.35,5h.65v.66h-2.9v-.66H179L178.65,21l-2,.06-.33,1.39h.78v.66H175v-.66h.58l1.48-5h-.57Z" style="fill: #cb9833;fill-rule: evenodd"/>
    <path d="M165,56.85a5.06,5.06,0,0,1-1.67-.74A12.06,12.06,0,0,1,160.27,53a5.48,5.48,0,0,1-1.11-3.22,3.24,3.24,0,0,1,1.44-2.84l1.57-.85v.36a10.45,10.45,0,0,1,2.88-3,1.53,1.53,0,0,0,.45-.59,2.22,2.22,0,0,0,.19-.68,4.22,4.22,0,0,0-.06-1.46,3.48,3.48,0,0,0-.26-.83,1.07,1.07,0,0,1-.15-1.32,1.06,1.06,0,0,1,1.4-.34,3.65,3.65,0,0,1,.34.18,9.86,9.86,0,0,1,.92.62,12.92,12.92,0,0,1,2.36,2.19,8.25,8.25,0,0,1,.92,1.35,7,7,0,0,1,.7,2.21l.84.78a5.13,5.13,0,0,1,1.08,1.6,5.27,5.27,0,0,1,.08,3.94c-.12,1.7-1.63,3.22-2.86,4.23a21.18,21.18,0,0,1-2.71,1.89,5.47,5.47,0,0,1-1.91.86,1.35,1.35,0,0,1-1.06-.47,1.3,1.3,0,0,1-.28-.72m2.31-7c-.58-.78-1.1-1.32-1.42-1.69a1.85,1.85,0,0,1-.45-1.08,4.32,4.32,0,0,0-1.16,3.07c0,1.63.52,2.29,1.23,3.62,1.86,3.38-1.81,2.36-4.45-1.44a4.46,4.46,0,0,1-.9-2.6,2.11,2.11,0,0,1,.9-1.93s-.07,2.35,1.29,3.44a.88.88,0,0,0,.25-.73,11.23,11.23,0,0,1,0-2.53c.2-1,1.16-2.41,3-3.8s.91-4.64.45-5.07S169,40.6,170.24,43s.58,7,.07,7.85a3.28,3.28,0,0,0,1.35-1.93c.58-2.23.33-2.66.33-2.66a4.24,4.24,0,0,1,.83,4.59c0,2.84-6.19,6.15-6.45,6.15C164.89,57,169.21,52.61,167.34,49.89Zm-1.87-.65a7.35,7.35,0,0,0-.13,1,5.5,5.5,0,0,0,1.06,3,2.77,2.77,0,0,0,.1-.26,2.92,2.92,0,0,0,0-2.5C166.17,50,165.82,49.65,165.47,49.24Z" style="fill: #cb9833;fill-rule: evenodd"/>
    <path d="M227.1,48.44V48a12.93,12.93,0,0,1,.19-1.81l0-.2.06-.07.22.15a5.77,5.77,0,0,1,1.1.67,5.36,5.36,0,0,1,.64.6,1,1,0,0,1,.27.66v.24a2.66,2.66,0,0,1-.27,1,4.58,4.58,0,0,1-.38.84l-.07.19-.19-.13a1.89,1.89,0,0,1-.9-.42,1.83,1.83,0,0,1-.71-1.32m-8.27,7.66c0-.1.18-.41.21-.49l.13-.24.19.12c.54.37,1.94.65,1.94,1.81a2.51,2.51,0,0,1-.4,1c-.53-.26-1.15-.45-1.34-.59,0,0,.19-.29.19-.35.13-.42-.24-.15,0-.28,0-.06.07-.06.14-.06l-.07-.06C219.35,56.6,219.38,56.32,218.83,56.1Zm2.71-3.55a4.76,4.76,0,0,0,.45-.24c2.32.53,2.53,2.17,1.24,3.91l-.06.12-.2-.06C221,55.76,221.16,54.15,221.54,52.55Zm8.66-7.49c0-.19-.08-.36-.08-.55a10.06,10.06,0,0,1,.13-1.51l.07-.35.33.23a6.94,6.94,0,0,1,.82.72,2.39,2.39,0,0,1,.59.61,1.75,1.75,0,0,1,.26.66v.24a5.43,5.43,0,0,1-.51,1.7l-.13.17-.21-.12a1.6,1.6,0,0,1-.7-.48A1.8,1.8,0,0,1,230.2,45.06Zm5-5.86a1.41,1.41,0,0,1-.19-.78v-.06a5.78,5.78,0,0,1,.44-2.23l.07-.24.26.12a6.23,6.23,0,0,1,1.22.72,4.84,4.84,0,0,1,.85.67,1.17,1.17,0,0,1,.25.36.66.66,0,0,1,.07.36,2.66,2.66,0,0,1-.39,1.2c-.26.38-.45.67-.65.91l-.13.12-.12-.05a4.38,4.38,0,0,1-1.1-.56A2.19,2.19,0,0,1,235.22,39.2Zm-3,2.84v-.18a8,8,0,0,1,.26-2.12l.06-.29.26.12a12.18,12.18,0,0,1,1.1.66,9,9,0,0,1,.71.61.93.93,0,0,1,.25.66,2.91,2.91,0,0,1-.32,1.27,6.26,6.26,0,0,1-.45.9l-.06.11-.2-.05a2.76,2.76,0,0,1-1-.43,1.3,1.3,0,0,1-.44-.53A1.26,1.26,0,0,1,232.19,42Zm2.07,8,.32.06-.2.3a6.77,6.77,0,0,1-.77.91,3,3,0,0,1-.65.6,3.74,3.74,0,0,1-.45.25h-.32a3.55,3.55,0,0,1-1.29-.31,5.88,5.88,0,0,0-.84-.42l-.13-.12.07-.18a2.55,2.55,0,0,1,.52-.79,2,2,0,0,1,1.41-.6A10.87,10.87,0,0,1,234.26,50.06Zm-5.48,6.46c-1.23,2.19-2.34,3.31-4.58,1.2l-.13-.12v-.12a5,5,0,0,1,.51-1C225.45,55.31,227.75,56,228.78,56.52Zm2.64-3.45.32.07-.19.24a3.88,3.88,0,0,1-.78,1,2.33,2.33,0,0,1-.65.6,1.32,1.32,0,0,1-.64.25h0a3.06,3.06,0,0,1-1.29-.36,3.59,3.59,0,0,1-.91-.49l-.13,0,.06-.19a2.13,2.13,0,0,1,.52-.85,1.82,1.82,0,0,1,1.41-.6A9.14,9.14,0,0,1,231.42,53.07Zm-10.19,5.5c1.75-1.68,3.55-3.51,5.16-5.26l-.19-.05a2.24,2.24,0,0,1-1-.3,1.8,1.8,0,0,1-.84-1.21,18.55,18.55,0,0,1,.19-2.41,4.71,4.71,0,0,1,1.3.48,2.9,2.9,0,0,1,.71.49,2,2,0,0,1,.38.6v.54a5.44,5.44,0,0,1-.51,1.69v.12c2.12-2.35,4.19-4.82,6.37-7.54l2.39-3c.51-.61,1.42-1.7,2.2-2.66a13.12,13.12,0,0,0,1.29-2.31,4.87,4.87,0,0,1,1.36-3.55,9.89,9.89,0,0,1,2.13-1.51l.64-.42-.06.48V33c-.13.79-.52,3.32-1.42,4.16a4.09,4.09,0,0,1-2.2.91h0l-5.57,8.09a148.36,148.36,0,0,1-11.6,13,4.2,4.2,0,0,0-.57-.42ZM225.55,60l-.12.24a6.26,6.26,0,0,1-2.17,2.17c-.08-.28-.32-.71-.35-.89h-.07a2.39,2.39,0,0,1-.44-1.21,2.76,2.76,0,0,0-.41-.59A6.33,6.33,0,0,1,225.55,60Zm17.34-20.5.25.06-.11.23c-1,1.82-.88,2-2.71,2h-.07a2.52,2.52,0,0,1-1.22-.42c-.32-.18-.64-.42-.9-.6l-.13-.12.07-.12a2.29,2.29,0,0,1,2.5-1.5A6.94,6.94,0,0,1,242.89,39.45Zm-6.06,7.23.39.07L237,47a6,6,0,0,1-.78.85,2.65,2.65,0,0,1-.64.49,1.81,1.81,0,0,1-.71.24,4.79,4.79,0,0,1-1.93-.55l-.26-.06.13-.24a4.39,4.39,0,0,1,.58-.66,2,2,0,0,1,1.35-.55H235A12.33,12.33,0,0,1,236.83,46.68Zm2.83-3.31.27.12-.13.24c-.14.24-.45.6-.78,1a2.15,2.15,0,0,1-.64.6,1.46,1.46,0,0,1-.71.3,4.64,4.64,0,0,1-1.35-.43c-.39-.17-.65-.36-.9-.47l-.14-.13.07-.18a2.75,2.75,0,0,1,.51-.85,1.88,1.88,0,0,1,1.42-.6A18.89,18.89,0,0,1,239.66,43.37Z" style="fill: #cb9833"/>
  </g>
</svg>
