<?xml version="1.0" encoding="UTF-8"?>
<!DOCTYPE svg PUBLIC "-//W3C//DTD SVG 1.1//EN" "http://www.w3.org/Graphics/SVG/1.1/DTD/svg11.dtd">
<!-- Creator: CorelDRAW X7 -->
<svg xmlns="http://www.w3.org/2000/svg" xml:space="preserve" width="2.49752in" height="4.72441in" version="1.1" style="shape-rendering:geometricPrecision; text-rendering:geometricPrecision; image-rendering:optimizeQuality; fill-rule:evenodd; clip-rule:evenodd"
viewBox="0 0 2498 4724"
 xmlns:xlink="http://www.w3.org/1999/xlink">
 <defs>
  <style type="text/css">
   <![CDATA[
    .fil0 {fill:#DAAB4F}
   ]]>
  </style>
 </defs>
 <g id="Layer_x0020_1">
  <metadata id="CorelCorpID_0Corel-Layer"/>
  <g id="_788846896">
   <path class="fil0" d="M1229 526c-87,131 -107,288 -70,461 7,32 27,104 62,51 14,-22 18,-50 7,-59 -51,-44 -65,-108 -67,-174 -4,-112 51,-216 80,-266l0 247c-14,4 -28,14 -38,26 -11,13 -16,38 -12,55 8,39 30,67 50,78l0 81c-13,23 -34,60 -34,66 0,47 25,63 33,88 0,1 1,2 1,3l0 40c-37,23 -72,49 -105,79l0 -55c16,-13 33,-26 49,-39 -14,8 -31,17 -49,27l0 -1097c15,-3 26,-16 26,-32 0,-18 -15,-33 -33,-33 -19,0 -33,15 -33,33 0,16 11,29 25,32l0 1107c-35,21 -72,46 -105,76l0 -969c15,-3 25,-16 25,-32 0,-18 -14,-33 -32,-33 -19,0 -33,15 -33,33 0,16 10,29 25,32l0 984c-21,21 -40,44 -52,70 -30,59 -24,145 52,198l0 1001c-5,0 -11,0 -18,0 -23,1 -37,19 -36,43 -42,-2 -113,-16 -100,62 11,-16 37,-20 61,-19 29,0 56,7 57,18l0 1c-36,-7 -69,2 -99,10 -43,11 -78,20 -103,-26 -2,-4 -6,-5 -10,-3 -3,2 -4,6 -2,9 30,56 70,45 118,33 29,-8 61,-16 95,-9 -6,15 -29,18 -84,29 25,9 54,13 80,4 93,22 198,126 139,209 -8,11 -28,28 -49,35 -26,9 -54,8 -57,-6 -7,-41 62,-39 62,-73 -1,-71 -133,-106 -185,-117 -221,-47 -123,-192 -72,-344 390,-713 -9,-1570 -594,-2113 599,721 570,1402 232,1891 -95,5 -180,31 -227,138 -21,70 -38,139 -69,204 -21,40 -17,76 -6,110 46,59 97,105 152,145 56,252 135,332 365,428 0,21 0,42 0,64 -9,0 -18,0 -28,0 0,14 0,29 0,43 -19,0 -38,0 -58,0 0,10 0,21 0,31 228,0 456,0 684,0 228,0 455,0 683,0 0,-10 0,-21 0,-31 -19,0 -38,0 -58,0 0,-14 0,-29 0,-43 -9,0 -18,0 -28,0 0,-22 0,-43 0,-64 231,-96 310,-176 365,-428 55,-40 107,-86 153,-145 10,-34 15,-70 -6,-110 -32,-65 -48,-134 -69,-204 -48,-107 -133,-133 -228,-138 -337,-489 -366,-1170 233,-1891 -585,543 -985,1400 -595,2113 52,152 149,297 -72,344 -52,11 -183,46 -184,117 -1,34 69,32 61,73 -2,14 -30,15 -56,6 -22,-7 -42,-24 -50,-35 -58,-83 46,-187 140,-209 25,9 54,5 80,-4 -55,-11 -78,-14 -84,-29 34,-7 66,1 95,9 48,12 88,23 118,-33 2,-3 0,-7 -3,-9 -3,-2 -7,-1 -9,3 -25,46 -61,37 -103,26 -30,-8 -63,-17 -100,-10l1 -1c1,-11 28,-18 56,-18 25,-1 50,3 61,19 14,-78 -57,-64 -99,-62 1,-24 -14,-42 -37,-43 -6,0 -12,0 -17,0l0 -1082c45,-47 84,-105 107,-162 51,-127 22,-212 -107,-214l0 -795c14,-3 25,-16 25,-32 0,-18 -15,-33 -33,-33 -18,0 -33,15 -33,33 0,16 11,29 25,32l0 795c-2,0 -5,0 -7,1 -34,1 -66,7 -97,15l0 -195c25,-122 30,-246 0,-353l0 -477c14,-3 25,-16 25,-32 0,-18 -15,-33 -33,-33 -18,0 -33,15 -33,33 0,16 11,29 25,32l0 431c-11,-27 -24,-53 -40,-77 -40,-60 -43,-39 -14,9 17,30 40,88 54,155l0 220c-10,33 -26,62 -54,86 -23,19 32,101 54,101 0,-2 0,-6 0,-9l0 114c-14,4 -28,9 -41,15 11,-37 48,-69 27,-92 0,0 -19,-28 -22,-32 -9,-12 -23,-44 -39,-56 -8,-7 -19,-3 -30,3l0 -56c1,0 2,0 3,0 14,0 22,-13 18,-31 -7,-38 12,-53 15,-83 4,-38 -14,-53 -36,-53l0 -272c8,-18 8,-26 0,-20l0 -426c15,-4 26,-17 26,-32 0,-18 -15,-33 -33,-33 -18,0 -33,15 -33,33 0,15 11,28 25,32l0 444c-3,5 -7,10 -12,17zm268 678l0 179c2,0 3,-1 5,-2 -1,3 -3,7 -5,10l0 71c88,-97 78,-213 0,-258zm-16 1401l0 -1067c-31,30 -65,55 -100,71l-4 43 0 976c11,0 23,-1 36,-4 30,-6 25,-17 68,-19zm0 -1127l0 -68c-24,26 -60,48 -88,77 0,7 -3,41 -3,50l-1 6c37,-20 68,-42 92,-65zm0 -89l0 -192c-28,-12 -63,-16 -104,-8l0 207c28,11 71,4 104,-7zm-465 -19l0 174c12,15 27,27 44,36 18,10 39,17 61,20l0 -75c-57,-53 -72,-137 0,-208l0 -57c-42,36 -80,72 -105,110zm0 244l0 991c43,2 39,13 69,19 12,3 24,4 36,4l0 -980c-38,-5 -73,-16 -105,-34zm-15 -92l0 -124c-4,7 -7,15 -9,23 -11,39 -6,73 9,101zm135 -144l0 63c11,27 37,49 76,62 -3,-2 -5,-6 -3,-15 3,-41 26,-50 32,-62l0 -168c-22,16 -42,31 -59,49 -23,24 -38,48 -46,71zm0 160l0 64c30,2 62,0 93,-6l0 -21c-35,-5 -67,-18 -93,-37zm0 112l0 978c23,-1 46,-5 71,-10 -26,31 -37,49 -36,61 2,17 18,46 70,53l0 -424 -11 -661c-33,4 -64,5 -94,3zm120 1040l0 42c53,-7 68,-36 70,-53 2,-12 -10,-30 -35,-61 25,5 47,9 70,10l0 -843 -105 905zm105 -1302l0 -196c-14,4 -29,8 -44,14 -1,74 19,80 30,155 1,12 6,21 14,27zm-84 215l13 465 65 -522c1,-5 2,-17 4,-30 5,-46 -6,-59 -18,-60 -11,-1 -24,9 -22,48 1,44 -44,-1 -42,99zm53 -231c-2,11 -5,12 -10,12 -10,0 -13,-6 -17,-23 -3,-17 -1,-29 0,-36 2,-16 13,-19 14,0 0,7 1,14 4,16 8,7 11,22 9,31zm-793 2061l1424 0 0 29 -1424 0 0 -29zm712 -528c-29,-13 -52,-29 -68,-51 37,100 -62,209 -182,216 -101,6 -233,-89 -103,-89 43,-3 59,-24 54,-45 -12,-45 -70,-44 -106,-49 -112,-18 -144,-75 -168,-203 -10,-53 -25,-62 -37,-5 -11,52 -9,151 33,205 38,49 51,79 39,89 -17,16 -73,-47 -83,-61 -35,-48 -47,-110 -55,-170 -17,-117 -54,-80 -59,-6 -6,88 31,212 116,283 14,11 42,27 43,41 0,6 -16,8 -35,1 -105,-39 -184,-154 -185,-278 -1,-236 -139,202 159,337 -21,7 -37,10 -61,12 151,90 302,88 698,88 395,0 546,2 698,-88 -25,-2 -41,-5 -61,-12 297,-135 159,-573 158,-337 0,124 -80,239 -184,278 -19,7 -35,5 -35,-1 0,-14 29,-30 42,-41 86,-71 123,-195 117,-283 -5,-74 -42,-111 -59,6 -9,60 -21,122 -56,170 -9,14 -65,77 -83,61 -12,-10 1,-40 39,-89 42,-54 45,-153 34,-205 -12,-57 -28,-48 -38,5 -24,128 -56,185 -167,203 -37,5 -95,4 -106,49 -5,21 11,42 53,45 130,0 -2,95 -102,89 -121,-7 -220,-116 -182,-216 -17,22 -40,38 -68,51zm0 374l-404 0c-51,0 -68,6 -68,25 1,9 9,18 45,17 35,-1 90,1 131,0 24,0 35,-8 43,-8 15,0 28,-3 35,7 8,11 8,25 25,24 32,-1 27,-34 45,-35 27,-1 17,40 52,37 17,-1 30,-23 43,-23 22,0 13,25 53,28 39,-3 31,-28 52,-28 14,0 26,22 43,23 35,3 26,-38 53,-37 17,1 13,34 44,35 17,1 17,-13 26,-24 7,-10 19,-7 34,-7 9,0 20,8 44,8 41,1 96,-1 131,0 35,1 44,-8 44,-17 1,-19 -16,-25 -67,-25l-404 0zm439 -1783c5,-16 11,-34 17,-46 17,-36 -2,-48 -18,-13 -8,16 -10,31 -13,51 -7,49 0,55 14,8zm158 695c-61,-159 -100,-297 -100,-476 0,-28 20,-196 24,-80 1,39 31,208 51,235 17,25 14,63 8,91 -19,95 10,136 17,230zm-247 -156c10,114 57,258 109,332 32,44 56,19 39,-22 -22,-53 -111,-201 -148,-310zm316 75c5,83 32,123 51,151 9,12 53,18 28,-31 -11,-22 -41,-55 -79,-120zm-120 177c-57,-54 -124,-239 -132,-330 -5,-54 30,-49 44,-6 18,55 44,248 88,336zm119 -1420c-42,59 -86,132 -111,200 -9,26 8,34 18,7 22,-60 69,-145 106,-197 34,-46 17,-52 -13,-10zm270 1487c7,1 13,-3 14,-9 1,-7 -3,-13 -10,-14 -85,-15 -167,-17 -237,-2 -64,14 -119,42 -157,89 -4,5 -3,12 2,16 5,4 12,4 16,-1 34,-43 85,-69 144,-82 67,-14 146,-12 228,3zm-154 139c170,-4 273,79 252,81 -11,1 -66,-23 -130,-39 -41,-10 -85,-18 -114,-23 -45,-9 -62,-18 -8,-19zm42 173c89,21 130,78 119,76 -5,0 -31,-20 -61,-37 -20,-11 -42,-21 -56,-28 -22,-10 -30,-17 -2,-11zm-45 -108c185,1 254,144 230,147 -12,2 -59,-40 -119,-70 -39,-20 -83,-35 -112,-45 -43,-16 -57,-32 1,-32zm-115 -135c203,-61 350,21 326,32 -13,5 -86,-10 -167,-13 -52,-1 -108,3 -144,5 -56,3 -79,-5 -15,-24zm163 635c47,-65 79,-160 90,-241 7,-53 -32,-63 -38,-1 -7,84 -20,159 -71,229 -25,34 -2,41 19,13zm-593 -431c-18,0 -31,6 -31,13 0,7 13,13 31,13 17,0 30,-6 30,-13 0,-7 -13,-13 -30,-13zm-673 -1131c-4,-16 -10,-34 -16,-46 -18,-36 1,-48 17,-13 8,16 10,31 13,51 8,49 0,55 -14,8zm-158 695c62,-159 101,-297 101,-476 0,-28 -21,-196 -25,-80 -1,39 -31,208 -50,235 -18,25 -14,63 -9,91 19,95 -10,136 -17,230zm248 -156c-11,114 -58,258 -110,332 -31,44 -55,19 -39,-22 22,-53 111,-201 149,-310zm-317 75c-5,83 -31,123 -51,151 -9,12 -52,18 -28,-31 11,-22 41,-55 79,-120zm121 177c57,-54 123,-239 131,-330 5,-54 -30,-49 -43,-6 -18,55 -45,248 -88,336zm-119 -1420c42,59 86,132 110,200 10,26 -8,34 -18,7 -21,-60 -68,-145 -106,-197 -34,-46 -17,-52 14,-10zm-271 1487c-6,1 -12,-3 -13,-9 -1,-7 3,-13 9,-14 86,-15 167,-17 237,-2 65,14 119,42 157,89 4,5 4,12 -1,16 -5,4 -12,4 -16,-1 -35,-43 -85,-69 -144,-82 -68,-14 -146,-12 -229,3zm155 139c-171,-4 -273,79 -252,81 11,1 66,-23 129,-39 42,-10 86,-18 115,-23 45,-9 62,-18 8,-19zm-43 173c-88,21 -130,78 -119,76 6,0 31,-20 62,-37 20,-11 42,-21 56,-28 22,-10 30,-17 1,-11zm45 -108c-184,1 -254,144 -230,147 13,2 60,-40 120,-70 39,-20 82,-35 111,-45 44,-16 58,-32 -1,-32zm116 -135c-203,-61 -350,21 -326,32 13,5 86,-10 167,-13 52,-1 107,3 144,5 55,3 79,-5 15,-24zm-163 635c-47,-65 -80,-160 -90,-241 -7,-53 31,-63 37,-1 8,84 21,159 71,229 25,34 2,41 -18,13zm593 -431c17,0 31,6 31,13 0,7 -14,13 -31,13 -17,0 -31,-6 -31,-13 0,-7 14,-13 31,-13z"/>
   <g>
    <path class="fil0" d="M17 3557l8 0 1 5 98 0 1 -5 9 0 17 47 -11 4c-5,-13 -11,-22 -18,-27 -6,-5 -15,-7 -26,-7 -4,0 -7,0 -8,0 -1,0 -1,1 -2,2 0,1 0,3 0,8l0 112c0,6 0,9 1,11 0,2 1,3 2,4 1,1 3,2 5,3 1,0 6,0 12,0l0 10 -62 0 0 -10c7,0 11,0 13,0 3,-1 5,-3 6,-5 1,-2 2,-6 2,-12l0 -114c0,-4 -1,-6 -1,-7 0,-1 -1,-1 -2,-2 -1,0 -3,0 -6,0 -8,0 -15,1 -20,3 -5,2 -10,6 -14,11 -5,5 -8,12 -12,20l-10 -4 17 -47zm143 5l131 0 15 43 -10 4c-3,-7 -6,-13 -9,-17 -3,-4 -6,-7 -11,-10 -4,-3 -8,-5 -12,-6 -5,0 -12,-1 -23,-1l-40 0 0 59 20 0c7,0 12,-1 16,-3 4,-3 6,-6 8,-9 1,-3 1,-8 1,-15l0 -2 12 0 0 71 -12 0 0 -6c0,-6 0,-10 -1,-12 -1,-2 -2,-5 -4,-7 -3,-2 -5,-3 -7,-4 -3,-1 -7,-1 -13,-1l-20 0 0 52c0,6 1,9 1,10 1,1 1,2 3,3 1,0 4,1 9,1l24 0c14,0 24,-2 32,-5 8,-4 14,-9 20,-15 5,-5 9,-13 13,-22l11 3 -18 51 -136 0 0 -10 4 0c6,0 9,0 10,-1 2,-1 4,-2 5,-5 1,-1 1,-4 1,-10l0 -111c0,-5 0,-9 -1,-10 -1,-2 -3,-3 -6,-4 -1,-1 -5,-1 -13,-1l0 -10zm229 0l20 0 49 136c3,6 5,11 8,13 2,2 6,3 10,3l2 0 0 10 -57 0 0 -10c2,0 4,0 6,0 3,0 6,0 7,-1 2,-1 3,-3 3,-6 0,-1 -1,-5 -3,-11l-11 -32 -58 0 -12 35c-2,4 -2,6 -2,8 0,1 0,3 1,4 1,1 2,2 3,2 2,1 4,1 7,1 2,0 4,0 5,0l0 10 -48 0 0 -10c4,0 8,0 9,-1 2,-1 4,-2 6,-4 1,-2 3,-6 5,-13l50 -134zm-20 91l50 0 -25 -70 -25 70zm125 -96l8 0 1 5 99 0 0 -5 9 0 17 47 -10 4c-5,-13 -11,-22 -18,-27 -7,-5 -16,-7 -26,-7 -5,0 -8,0 -8,0 -1,0 -2,1 -2,2 -1,1 -1,3 -1,8l0 112c0,6 1,9 1,11 1,2 2,3 3,4 1,1 2,2 4,3 2,0 6,0 13,0l0 10 -62 0 0 -10c7,0 11,0 13,0 2,-1 4,-3 5,-5 1,-2 2,-6 2,-12l0 -114c0,-4 0,-6 -1,-7 0,-1 -1,-1 -1,-2 -1,0 -3,0 -6,0 -9,0 -15,1 -21,3 -5,2 -9,6 -14,11 -4,5 -8,12 -11,20l-11 -4 17 -47zm143 5l83 0c16,0 28,2 36,5 8,3 14,8 18,14 5,7 7,14 7,22 0,8 -2,16 -6,23 -5,6 -11,11 -19,15 -7,4 -18,6 -31,6l42 52c4,4 6,7 7,8 3,2 5,4 8,6 3,1 7,1 10,1l3 0 0 10 -37 0 -58 -77 -21 0 0 50c0,5 0,9 1,10 1,3 2,5 4,6 2,1 5,1 11,1l4 0 0 10 -62 0 0 -10 6 0c4,0 7,0 8,0 2,-1 3,-2 4,-3 1,-2 2,-3 2,-5 1,-1 1,-5 1,-12l0 -106c0,-5 -1,-8 -2,-10 0,-2 -2,-4 -3,-5 -2,-1 -5,-1 -9,-1l-7 0 0 -10zm42 13l0 61 33 0c11,0 19,-1 24,-2 6,-2 11,-5 15,-10 4,-5 5,-12 5,-19 0,-7 -1,-12 -4,-17 -2,-4 -6,-8 -11,-10 -4,-2 -11,-3 -20,-3l-42 0zm127 -13l61 0 0 10 -5 0c-4,0 -7,1 -9,2 -2,1 -4,3 -5,5 -1,2 -1,7 -1,13l0 105c0,5 0,9 1,11 1,2 3,4 5,5 1,1 5,1 9,1l5 0 0 10 -61 0 0 -10 5 0c4,0 7,0 9,-1 2,-1 4,-3 4,-5 1,-2 2,-6 2,-11l0 -107c0,-6 -1,-10 -2,-12 0,-2 -2,-4 -4,-5 -2,-1 -5,-1 -9,-1l-5 0 0 -10zm158 0l62 0 0 10 -4 0c-5,0 -9,1 -11,2 -2,1 -4,3 -5,6 0,1 -1,5 -1,9l0 62 61 -65c3,-3 5,-6 6,-7 0,-1 1,-2 1,-3 0,-1 -1,-2 -2,-3 -2,-1 -5,-1 -9,-1l-4 0 0 -10 58 0 0 10c-5,0 -9,0 -13,1 -3,2 -6,3 -9,5 -4,3 -8,6 -10,8l-43 44 50 66c4,6 8,10 10,12 3,3 5,4 8,5 3,1 7,1 13,1l0 10 -68 0 0 -10 4 0c4,0 7,0 8,0 1,0 2,-1 3,-2 1,-1 1,-2 1,-3 0,-2 -2,-6 -8,-14l-36 -49 -21 21 0 31c0,6 1,9 2,11 1,2 3,3 5,4 2,1 6,1 14,1l0 10 -62 0 0 -10 5 0c4,0 8,0 10,-1 1,-1 3,-3 4,-5 1,-2 1,-6 1,-12l0 -107c0,-6 0,-9 -1,-11 -1,-2 -3,-4 -4,-5 -2,-1 -6,-1 -12,-1l-3 0 0 -10zm255 -2c15,0 28,3 40,10 13,8 22,18 29,30 7,12 11,26 11,42 0,25 -8,46 -23,61 -16,16 -35,24 -59,24 -27,0 -48,-10 -63,-29 -13,-15 -20,-33 -20,-55 0,-16 4,-30 11,-42 7,-13 18,-23 31,-30 13,-8 27,-11 43,-11zm0 12c-12,0 -22,3 -31,8 -9,6 -16,14 -21,25 -5,11 -8,24 -8,39 0,16 3,28 8,39 5,10 12,18 21,24 8,5 18,8 29,8 11,0 20,-3 28,-8 9,-6 15,-14 21,-26 5,-11 8,-24 8,-39 0,-14 -3,-27 -8,-40 -5,-10 -11,-18 -19,-22 -7,-5 -17,-8 -28,-8zm103 -10l51 0 48 128 46 -128 49 0 0 10 -5 0c-4,0 -8,0 -10,1 -1,1 -3,3 -4,5 -1,2 -1,5 -1,10l0 107c0,7 0,11 1,13 1,2 2,4 4,5 2,1 5,1 10,1l5 0 0 10 -61 0 0 -10 4 0c4,0 7,0 9,-1 1,0 3,-1 4,-3 1,-1 2,-3 2,-4 1,-3 1,-6 1,-8l0 -119 -53 145 -11 0 -53 -143 0 115c0,6 0,10 1,12 1,2 3,4 5,5 2,1 6,1 11,1l4 0 0 10 -57 0 0 -10 4 0c5,0 9,0 11,-1 3,-2 4,-3 5,-5 1,-2 2,-7 2,-13l0 -106c0,-6 -1,-10 -1,-11 -1,-2 -3,-4 -5,-5 -2,-1 -5,-1 -10,-1l-6 0 0 -10zm216 0l77 0c18,0 31,1 38,3 10,2 19,7 24,13 6,7 9,14 9,24 0,6 -1,12 -4,17 -3,6 -8,10 -14,14 -4,2 -9,4 -16,6 9,1 15,3 19,5 7,4 12,8 16,14 4,6 6,13 6,21 0,7 -2,14 -6,20 -4,7 -9,12 -16,16 -7,4 -15,6 -24,7 -9,2 -19,2 -28,2l-81 0 0 -10 5 0c6,0 9,0 11,-2 3,-2 4,-6 4,-11l0 -113c0,-5 0,-9 -1,-11 -1,-1 -2,-3 -4,-4 -1,-1 -5,-1 -10,-1l-5 0 0 -10zm42 13l0 59 29 0c14,0 24,0 29,-2 8,-2 14,-5 18,-10 4,-5 6,-12 6,-20 0,-6 -2,-12 -5,-16 -4,-5 -9,-8 -16,-9 -4,-1 -13,-2 -26,-2l-35 0zm0 70l0 54c0,5 0,8 0,9 1,1 2,2 4,3 1,0 5,1 11,1l16 0c15,0 27,-1 33,-3 7,-2 13,-5 17,-11 5,-6 7,-12 7,-20 0,-7 -1,-13 -5,-18 -4,-5 -9,-9 -16,-11 -7,-2 -19,-4 -36,-4l-31 0zm135 -83l131 0 15 43 -10 4c-3,-7 -6,-13 -9,-17 -3,-4 -6,-7 -11,-10 -4,-3 -8,-5 -12,-6 -5,0 -12,-1 -24,-1l-39 0 0 59 20 0c7,0 12,-1 16,-3 4,-3 6,-6 8,-9 1,-3 1,-8 1,-15l0 -2 12 0 0 71 -12 0 0 -6c0,-6 0,-10 -1,-12 -1,-2 -2,-5 -4,-7 -3,-2 -5,-3 -7,-4 -3,-1 -7,-1 -13,-1l-20 0 0 52c0,6 1,9 1,10 1,1 1,2 3,3 1,0 4,1 9,1l24 0c14,0 24,-2 32,-5 8,-4 14,-9 20,-15 5,-5 9,-13 13,-22l11 3 -18 51 -136 0 0 -10 4 0c6,0 9,0 10,-1 2,-1 4,-2 5,-5 1,-1 1,-4 1,-10l0 -111c0,-5 0,-9 -1,-10 -1,-2 -3,-3 -6,-4 -1,-1 -5,-1 -13,-1l0 -10zm54 -36c4,0 7,1 10,4 3,3 4,6 4,10 0,4 -1,7 -4,10 -3,3 -6,4 -10,4 -4,0 -7,-1 -10,-4 -3,-3 -4,-6 -4,-10 0,-4 1,-7 4,-10 3,-3 6,-4 10,-4zm38 0c4,0 8,1 10,4 3,3 5,6 5,10 0,4 -2,7 -5,10 -2,3 -6,4 -10,4 -3,0 -7,-1 -9,-4 -3,-3 -5,-6 -5,-10 0,-4 2,-7 5,-10 2,-3 6,-4 9,-4zm81 31l8 0 1 5 99 0 1 -5 8 0 17 47 -10 4c-5,-13 -11,-22 -18,-27 -7,-5 -16,-7 -26,-7 -5,0 -7,0 -8,0 -1,0 -2,1 -2,2 0,1 -1,3 -1,8l0 112c0,6 1,9 1,11 1,2 2,3 3,4 1,1 2,2 4,3 2,0 6,0 13,0l0 10 -62 0 0 -10c7,0 11,0 13,0 2,-1 4,-3 5,-5 2,-2 2,-6 2,-12l0 -114c0,-4 0,-6 0,-7 -1,-1 -1,-1 -2,-2 -1,0 -3,0 -6,0 -9,0 -15,1 -20,3 -5,2 -10,6 -15,11 -4,5 -8,12 -11,20l-10 -4 16 -47zm203 5l19 0 50 136c2,6 5,11 7,13 3,2 6,3 10,3l3 0 0 10 -57 0 0 -10c2,0 3,0 5,0 4,0 6,0 7,-1 3,-1 4,-3 4,-6 0,-1 -1,-5 -3,-11l-11 -32 -58 0 -13 35c-1,4 -2,6 -2,8 0,1 1,3 1,4 1,1 2,2 4,2 1,1 3,1 6,1 2,0 4,0 5,0l0 10 -48 0 0 -10c5,0 8,0 10,-1 2,-1 4,-2 5,-4 2,-2 3,-6 6,-13l50 -134zm-20 91l49 0 -24 -70 -25 70zm121 -91l83 0c16,0 28,2 36,5 8,3 14,8 18,14 5,7 7,14 7,22 0,8 -2,16 -6,23 -5,6 -11,11 -19,15 -8,4 -18,6 -31,6l42 52c3,4 6,7 7,8 2,2 5,4 8,6 3,1 7,1 10,1l3 0 0 10 -37 0 -58 -77 -21 0 0 50c0,5 0,9 1,10 0,3 2,5 4,6 2,1 5,1 11,1l4 0 0 10 -62 0 0 -10 6 0c4,0 7,0 8,0 2,-1 3,-2 4,-3 1,-2 2,-3 2,-5 1,-1 1,-5 1,-12l0 -106c0,-5 -1,-8 -2,-10 -1,-2 -2,-4 -3,-5 -2,-1 -5,-1 -9,-1l-7 0 0 -10zm42 13l0 61 33 0c11,0 19,-1 23,-2 7,-2 12,-5 16,-10 3,-5 5,-12 5,-19 0,-7 -1,-12 -4,-17 -2,-4 -6,-8 -11,-10 -4,-2 -11,-3 -20,-3l-42 0zm202 -13l62 0 0 10 -5 0c-5,0 -8,1 -10,2 -2,1 -3,3 -4,5 -1,2 -2,7 -2,13l0 105c0,5 1,9 2,11 1,2 2,4 4,5 2,1 5,1 10,1l5 0 0 10 -62 0 0 -10 5 0c5,0 8,0 10,-1 2,-1 3,-3 4,-5 1,-2 1,-6 1,-11l0 -107c0,-6 0,-10 -1,-12 -1,-2 -2,-4 -4,-5 -2,-1 -5,-1 -10,-1l-5 0 0 -10z"/>
    <path class="fil0" d="M217 3786c38,0 72,9 103,27 33,20 58,46 76,77 18,31 27,68 27,109 0,64 -20,116 -60,157 -39,40 -90,60 -151,60 -69,0 -123,-24 -163,-73 -33,-39 -49,-86 -49,-141 0,-41 9,-78 28,-111 18,-32 44,-58 78,-77 34,-19 71,-28 111,-28zm0 32c-31,0 -57,8 -80,22 -22,14 -40,35 -53,62 -13,28 -20,62 -20,103 0,38 6,71 20,98 13,27 31,48 53,62 22,14 47,21 75,21 28,0 52,-7 73,-21 22,-14 39,-36 53,-66 14,-30 21,-63 21,-100 0,-37 -7,-72 -21,-103 -12,-26 -28,-46 -47,-59 -20,-12 -44,-19 -74,-19zm265 -25l164 0c50,0 84,3 103,9 23,8 43,21 58,39 15,19 23,42 23,70 0,25 -6,46 -17,63 -15,21 -32,36 -52,45 -20,9 -52,14 -95,14l-76 0 0 105c0,17 1,27 3,31 3,6 6,10 10,12 4,2 12,3 25,3l14 0 0 25 -160 0 0 -25 10 0c14,0 23,-1 28,-3 5,-2 8,-6 10,-11 3,-5 4,-14 4,-27l0 -285c0,-14 -1,-23 -3,-27 -2,-5 -6,-8 -11,-10 -4,-2 -14,-3 -28,-3l-10 0 0 -25zm108 32l0 175 64 0c33,0 55,-3 68,-8 13,-6 24,-16 33,-31 8,-14 12,-30 12,-50 0,-21 -5,-38 -14,-52 -10,-14 -24,-24 -41,-29 -12,-3 -35,-5 -69,-5l-53 0zm271 -32l337 0 39 109 -26 10c-7,-18 -14,-32 -22,-42 -7,-10 -17,-19 -27,-26 -11,-8 -22,-12 -33,-15 -11,-2 -31,-3 -60,-3l-101 0 0 153 50 0c19,0 33,-3 42,-10 10,-6 16,-14 20,-23 2,-7 4,-19 4,-37l0 -7 29 0 0 183 -29 0 0 -16c0,-14 -1,-24 -3,-30 -2,-6 -6,-12 -12,-17 -5,-6 -11,-9 -18,-12 -6,-1 -17,-2 -33,-2l-50 0 0 135c0,14 1,22 2,25 1,3 4,6 7,7 3,1 11,2 24,2l62 0c35,0 62,-4 82,-12 19,-9 37,-22 52,-39 11,-13 22,-32 33,-57l27 10 -46 130 -350 0 0 -25 12 0c14,0 22,-1 26,-2 5,-3 9,-7 12,-13 1,-4 3,-12 3,-26l0 -287c0,-13 -2,-21 -4,-26 -3,-4 -7,-8 -14,-10 -3,-1 -15,-2 -35,-2l0 -25zm439 0l213 0c40,0 71,4 92,12 20,9 36,21 47,37 11,16 17,35 17,56 0,22 -5,41 -16,58 -11,17 -27,30 -47,39 -20,10 -48,15 -81,16l108 134c9,11 15,18 18,21 7,6 14,10 22,14 7,3 16,4 25,4l8 0 0 25 -95 0 -151 -198 -53 0 0 128c0,14 0,23 1,27 2,7 6,11 11,14 5,3 14,4 28,4l10 0 0 25 -157 0 0 -25 14 0c11,0 18,0 21,-2 4,-1 7,-4 10,-7 3,-3 5,-8 6,-13 1,-2 1,-12 1,-30l0 -273c0,-12 -1,-21 -3,-26 -3,-6 -6,-9 -10,-12 -5,-2 -12,-3 -22,-3l-17 0 0 -25zm107 32l0 157 85 0c28,0 49,-1 60,-5 17,-5 30,-14 39,-26 10,-13 15,-29 15,-49 0,-17 -4,-31 -11,-43 -7,-11 -16,-20 -28,-25 -12,-6 -30,-9 -53,-9l-107 0zm483 -32l49 0 129 348c6,18 12,29 19,35 6,6 15,8 26,8l6 0 0 25 -147 0 0 -25c5,0 9,0 14,0 10,0 16,-1 19,-3 6,-4 8,-9 8,-14 0,-5 -2,-15 -8,-31l-28 -81 -149 0 -33 90c-3,10 -4,16 -4,20 0,4 1,7 3,10 2,3 5,5 8,7 4,1 9,2 17,2 6,0 10,0 13,0l0 25 -124 0 0 -25c12,0 20,-1 25,-3 5,-2 10,-6 14,-11 3,-5 8,-16 14,-32l129 -345zm-52 233l128 0 -64 -179 -64 179zm591 -233l22 0 31 128 -27 9c-17,-36 -41,-64 -70,-85 -23,-17 -50,-26 -79,-26 -17,0 -33,3 -47,9 -13,7 -24,15 -31,25 -7,10 -10,20 -10,30 0,10 2,19 8,27 5,9 13,17 24,23 11,7 29,14 54,21l78 23c9,3 23,8 41,16 18,8 32,16 42,25 10,9 18,20 24,33 6,13 9,27 9,41 0,33 -15,62 -44,87 -28,25 -66,37 -111,37 -24,0 -45,-3 -64,-10 -18,-7 -38,-19 -60,-37l-14 40 -20 0 -28 -149 27 -6c10,28 24,51 41,70 16,19 35,34 55,44 21,10 41,15 62,15 29,0 54,-9 75,-26 18,-15 27,-32 27,-52 0,-18 -6,-32 -19,-44 -13,-11 -37,-22 -71,-32l-74 -21c-41,-13 -71,-28 -88,-47 -17,-19 -25,-41 -25,-65 0,-19 5,-37 16,-53 11,-16 28,-30 51,-41 23,-11 48,-16 76,-16 23,0 45,4 66,12 14,6 28,14 41,24l12 -29z"/>
    <path class="fil0" d="M0 4325l189 0c46,0 78,2 95,7 25,6 45,17 60,33 14,16 22,35 22,58 0,16 -4,30 -12,43 -8,13 -19,24 -34,33 -9,6 -22,11 -39,15 21,4 37,9 48,14 16,8 29,20 38,34 10,15 14,32 14,51 0,18 -4,35 -14,50 -9,16 -22,28 -39,38 -17,10 -37,16 -59,19 -23,3 -46,4 -70,4l-199 0 0 -24 13 0c13,0 22,-2 27,-6 7,-5 10,-14 10,-27l0 -277c0,-13 -1,-22 -3,-27 -2,-5 -5,-8 -9,-10 -5,-3 -13,-4 -25,-4l-13 0 0 -24zm102 32l0 146 73 0c35,0 58,-2 71,-5 19,-5 34,-14 45,-26 10,-13 15,-28 15,-48 0,-16 -4,-30 -14,-41 -9,-11 -22,-18 -38,-22 -10,-3 -31,-4 -64,-4l-88 0zm0 173l0 131c0,14 1,21 2,24 2,3 5,6 9,7 4,1 13,1 28,1l39 0c38,0 65,-2 82,-6 16,-4 30,-13 42,-27 12,-14 17,-31 17,-50 0,-16 -4,-31 -14,-44 -9,-12 -22,-21 -39,-27 -16,-6 -46,-9 -88,-9l-78 0zm480 -205l47 0 123 334c6,17 12,28 18,33 6,6 15,8 25,8l6 0 0 24 -141 0 0 -24c5,0 9,0 14,0 9,0 15,-1 18,-3 5,-4 8,-8 8,-14 0,-4 -3,-14 -8,-29l-27 -77 -143 0 -31 86c-3,9 -5,15 -5,19 0,3 1,7 3,9 2,3 5,6 8,7 4,1 9,2 17,2 5,0 9,0 12,0l0 24 -118 0 0 -24c11,0 19,-1 24,-3 4,-2 9,-6 12,-10 4,-5 9,-16 15,-31l123 -331zm-50 224l122 0 -61 -172 -61 172zm298 -224l153 0 0 24 -14 0c-11,0 -19,1 -23,4 -5,2 -8,5 -10,9 -2,4 -3,11 -3,21l0 278c0,13 0,21 1,23 1,4 4,6 8,8 2,1 10,1 23,1l21 0c25,0 46,-3 64,-10 18,-7 34,-18 47,-31 13,-14 25,-34 37,-61l26 8 -45 125 -285 0 0 -24 13 0c12,0 20,-1 24,-3 4,-2 8,-6 10,-10 2,-5 3,-14 3,-26l0 -271c0,-13 -1,-23 -3,-27 -2,-5 -5,-9 -9,-11 -4,-2 -12,-3 -25,-3l-13 0 0 -24zm351 0l322 0 38 105 -25 10c-7,-18 -13,-31 -21,-41 -7,-10 -16,-18 -27,-25 -10,-7 -20,-11 -31,-14 -10,-2 -30,-3 -57,-3l-97 0 0 147 48 0c18,0 31,-4 40,-10 9,-6 16,-13 19,-22 3,-7 4,-18 4,-35l0 -7 28 0 0 175 -28 0 0 -15c0,-13 -1,-23 -3,-29 -2,-6 -6,-11 -11,-16 -5,-6 -11,-9 -17,-11 -6,-2 -17,-3 -32,-3l-48 0 0 129c0,14 1,22 2,25 1,3 3,5 6,6 3,2 11,2 24,2l59 0c34,0 60,-4 78,-12 19,-8 36,-20 50,-36 11,-13 22,-31 32,-55l26 9 -44 125 -335 0 0 -24 11 0c13,0 22,0 25,-2 5,-3 9,-7 11,-12 2,-4 3,-12 3,-25l0 -275c0,-12 -1,-21 -4,-25 -2,-4 -6,-7 -12,-10 -4,-1 -15,-2 -34,-2l0 -24zm427 -13l20 0 3 13 242 0 3 -13 21 0 42 117 -26 9c-12,-31 -27,-53 -44,-65 -17,-13 -38,-19 -65,-19 -11,0 -17,0 -19,1 -2,1 -4,2 -5,4 -1,2 -1,9 -1,20l0 277c0,13 1,22 2,27 1,4 4,8 6,10 3,3 6,4 11,6 5,1 15,1 31,1l0 24 -152 0 0 -24c17,0 27,0 31,-1 7,-2 11,-6 14,-11 3,-6 5,-15 5,-30l0 -283c0,-8 -1,-14 -2,-16 -1,-1 -2,-3 -5,-4 -2,-1 -7,-1 -14,-1 -21,0 -37,2 -50,8 -12,5 -24,14 -35,27 -11,12 -20,29 -28,49l-25 -9 40 -117zm349 13l151 0 0 24 -12 0c-10,0 -18,2 -23,5 -5,3 -9,7 -11,13 -2,6 -3,17 -3,33l0 257c0,13 1,22 3,28 3,5 6,9 11,12 4,2 12,3 23,3l12 0 0 24 -151 0 0 -24 12 0c11,0 19,-1 24,-4 5,-2 8,-6 10,-11 2,-5 3,-14 3,-28l0 -262c0,-15 -1,-25 -3,-31 -2,-5 -5,-9 -10,-11 -5,-2 -13,-4 -24,-4l-12 0 0 -24zm210 -13l20 0 3 13 242 0 3 -13 21 0 42 117 -26 9c-12,-31 -27,-53 -44,-65 -17,-13 -38,-19 -65,-19 -11,0 -17,0 -19,1 -2,1 -4,2 -5,4 -1,2 -1,9 -1,20l0 277c0,13 1,22 2,27 1,4 4,8 6,10 3,3 6,4 11,6 5,1 15,1 31,1l0 24 -152 0 0 -24c17,0 27,0 31,-1 7,-2 11,-6 14,-11 3,-6 5,-15 5,-30l0 -283c0,-8 -1,-14 -2,-16 -1,-1 -2,-3 -5,-4 -2,-1 -7,-1 -14,-1 -21,0 -37,2 -50,8 -12,5 -24,14 -35,27 -11,12 -20,29 -28,49l-25 -9 40 -117z"/>
    <path class="fil0" d="M1165 4286c0,2 -2,4 -4,6 -3,2 -5,3 -7,3 -3,0 -7,-1 -13,-3 -4,-2 -8,-4 -12,-6l-1 1c9,7 13,16 13,27 0,10 -4,20 -12,29 9,7 16,11 21,11 3,0 7,-2 11,-5l3 6c-7,6 -12,10 -15,11 -7,5 -13,7 -18,7 -6,0 -14,-4 -23,-11 -13,7 -26,10 -39,10 -15,0 -27,-3 -36,-10 -12,-8 -17,-20 -17,-35 0,-10 2,-18 8,-25 6,-7 13,-12 22,-14 -5,-7 -7,-14 -7,-20 0,-10 4,-19 11,-25 7,-7 15,-10 25,-10 7,0 15,3 24,7 0,3 -1,9 -3,16l-2 2c-2,0 -3,-2 -4,-5 0,-4 -2,-6 -6,-8 -3,-2 -6,-2 -9,-2 -4,0 -7,1 -10,3 -3,2 -4,6 -4,10 0,8 8,22 26,43 11,13 23,26 36,38 2,-4 3,-9 3,-17 0,-7 -2,-14 -6,-20 -5,-7 -10,-10 -17,-10 -3,0 -5,1 -8,3l-4 -5c4,-7 12,-11 24,-11 3,0 7,1 13,2 6,1 10,1 13,1 10,0 16,-4 18,-11l3 -3c2,0 3,2 3,5l0 15zm-64 69c-18,-15 -35,-35 -52,-61 -4,4 -7,11 -7,22 0,13 4,24 11,32 6,9 15,13 27,13 8,0 15,-2 21,-6z"/>
   </g>
  </g>
 </g>
</svg>
